<?xml version="1.0" encoding="UTF-8" standalone="no"?>
<!DOCTYPE svg PUBLIC "-//W3C//DTD SVG 1.1//EN" "http://www.w3.org/Graphics/SVG/1.1/DTD/svg11.dtd">
<svg xmlns="http://www.w3.org/2000/svg" version="1.1" viewBox="0.00 0.00 650.00 650.00">
<g stroke-width="2.00" fill="none" stroke-linecap="butt">
<path stroke="#36dadc" vector-effect="non-scaling-stroke" d="
  M 544.27 103.41
  Q 545.07 104.88 545.84 106.65
  A 1.74 1.74 0.0 0 1 545.03 108.90
  C 543.11 109.87 538.83 108.51 536.79 107.99"
/>
<path stroke="#55e6e5" vector-effect="non-scaling-stroke" d="
  M 536.79 107.99
  Q 530.77 104.26 523.90 102.77
  C 519.87 101.89 516.62 102.11 511.15 101.94
  Q 503.10 101.69 448.30 101.61
  Q 433.70 101.59 409.24 102.03
  Q 389.73 102.39 370.20 102.64"
/>
<path stroke="#73ecea" vector-effect="non-scaling-stroke" d="
  M 370.20 102.64
  Q 356.47 102.37 342.75 102.85
  Q 332.34 103.21 322.46 106.46"
/>
<path stroke="#55e6e5" vector-effect="non-scaling-stroke" d="
  M 322.46 106.46
  Q 316.33 107.97 311.30 111.65"
/>
<path stroke="#36dadc" vector-effect="non-scaling-stroke" d="
  M 311.30 111.65
  C 305.11 109.91 299.41 115.18 294.10 118.87
  Q 292.25 120.16 287.48 121.23
  A 1.13 1.11 4.6 0 0 286.70 121.88
  Q 286.48 122.37 286.29 122.39
  A 0.29 0.29 0.0 0 1 286.07 121.89
  C 292.43 116.17 297.45 112.62 299.46 107.60"
/>
<path stroke="#67e7e6" vector-effect="non-scaling-stroke" d="
  M 535.71 111.74
  Q 539.59 114.28 542.40 118.22"
/>
<path stroke="#86f2ef" vector-effect="non-scaling-stroke" d="
  M 542.40 118.22
  Q 542.36 118.72 541.98 118.98
  A 0.66 0.66 0.0 0 1 541.09 118.86
  C 533.65 109.75 520.78 107.01 509.25 107.03
  Q 442.16 107.12 400.25 107.03
  Q 376.67 106.97 352.01 107.49
  Q 335.44 107.83 321.62 114.26
  C 308.56 120.34 299.31 132.79 289.29 142.71
  C 273.21 158.64 251.55 181.24 227.55 205.04
  C 221.54 211.00 214.24 219.69 206.12 225.33
  Q 200.44 229.27 192.74 231.40
  C 190.24 232.09 186.21 232.22 184.03 232.34
  Q 178.13 232.65 177.48 232.64
  Q 145.78 232.51 135.93 232.72
  C 131.74 232.81 125.86 233.16 122.40 234.50
  C 117.81 236.29 113.28 238.97 112.48 243.51
  C 111.34 249.89 112.38 257.25 117.73 262.09
  A 0.36 0.36 0.0 0 1 117.49 262.71
  L 116.64 262.71
  A 3.07 3.05 66.2 0 1 114.57 261.90
  Q 110.68 258.33 109.35 252.60
  Q 106.95 242.31 113.94 234.89
  C 118.04 230.53 123.99 229.39 129.66 229.26
  Q 141.37 228.98 155.72 229.14
  C 164.12 229.23 174.53 228.75 181.22 228.50
  Q 193.76 228.04 205.34 220.11
  C 215.36 213.24 225.07 202.31 231.77 196.51
  Q 233.38 195.12 243.17 184.91
  Q 249.98 177.81 254.53 173.28
  Q 272.63 155.26 289.08 138.43
  C 294.13 133.27 298.86 126.93 303.49 122.49
  Q 308.60 117.58 310.21 116.46
  Q 321.57 108.62 321.64 108.56
  A 0.36 0.36 0.0 0 0 321.57 107.97
  Q 321.27 107.80 321.32 107.46
  A 0.39 0.39 0.0 0 1 321.48 107.19
  L 322.46 106.46"
/>
<path stroke="#16c5cd" vector-effect="non-scaling-stroke" d="
  M 105.36 239.49
  C 102.41 242.01 99.27 245.40 94.96 244.45"
/>
<path stroke="#15b9bd" vector-effect="non-scaling-stroke" d="
  M 552.33 110.97
  Q 553.48 113.26 554.60 115.53
  C 558.08 122.57 559.16 131.45 558.83 139.12
  Q 558.81 139.50 558.58 140.00
  A 0.23 0.23 0.0 0 1 558.15 139.97
  L 557.61 138.20
  A 1.65 1.46 -55.4 0 1 557.55 137.70
  Q 557.68 134.41 557.04 131.66
  A 0.34 0.33 41.3 0 0 556.38 131.70
  Q 555.96 136.13 555.87 139.98
  Q 555.86 140.22 555.63 140.69
  Q 555.44 141.11 555.42 141.41
  Q 554.56 160.84 553.49 180.30"
/>
<path stroke="#15a2b1" vector-effect="non-scaling-stroke" d="
  M 553.49 180.30
  L 549.35 269.92"
/>
<path stroke="#16c5cd" vector-effect="non-scaling-stroke" d="
  M 549.35 269.92
  L 543.15 275.16
  A 0.20 0.20 0.0 0 0 543.10 275.39
  Q 543.22 275.62 543.15 275.72
  A 0.29 0.28 -32.5 0 1 542.63 275.61
  C 541.90 270.40 542.37 265.08 540.96 259.99"
/>
<path stroke="#49e1e1" vector-effect="non-scaling-stroke" d="
  M 540.96 259.99
  Q 541.38 250.06 542.03 240.00
  Q 542.50 232.88 543.01 221.50
  Q 544.75 183.12 546.62 144.75
  C 547.08 135.15 547.39 126.05 542.40 118.22"
/>
<path stroke="#49e1e1" vector-effect="non-scaling-stroke" d="
  M 536.79 107.99
  Q 542.81 112.80 543.86 114.65
  Q 550.05 125.50 549.64 137.03
  Q 549.09 152.63 548.56 164.42
  Q 548.46 166.67 548.27 168.22
  C 547.38 175.18 548.04 182.29 547.77 185.81
  Q 547.07 194.89 546.54 208.09
  A 0.03 0.02 90.0 0 1 546.52 208.12
  L 545.75 208.17
  A 0.18 0.18 0.0 0 1 545.56 207.98
  C 545.96 202.57 546.32 197.44 546.32 192.32
  Q 546.32 185.67 546.69 181.59
  Q 547.28 175.18 547.17 170.88
  Q 547.05 166.13 547.71 158.46
  C 548.43 150.21 548.16 144.49 548.26 134.59
  C 548.34 126.46 544.89 117.65 538.85 112.12
  A 3.88 3.86 80.2 0 0 538.06 111.56
  Q 535.61 110.26 535.71 111.74"
/>
<path stroke="#86f2ef" vector-effect="non-scaling-stroke" d="
  M 535.71 111.74
  Q 530.70 108.13 524.79 105.83
  C 520.11 104.01 516.39 102.76 511.75 102.76
  C 467.20 102.77 418.74 103.45 370.20 102.64"
/>
<path stroke="#34d1d6" vector-effect="non-scaling-stroke" d="
  M 540.96 259.99
  L 540.97 264.18"
/>
<path stroke="#55e6e5" vector-effect="non-scaling-stroke" d="
  M 540.97 264.18
  Q 540.55 265.56 540.34 265.71
  A 0.88 0.87 -18.2 0 1 538.95 265.01
  L 538.80 242.90
  A 0.95 0.93 -71.7 0 0 538.43 242.15
  C 531.90 237.25 526.73 235.17 518.52 237.68
  C 509.33 240.49 500.52 244.84 492.02 248.43
  Q 476.27 255.08 455.72 259.12
  Q 409.80 268.15 396.36 270.90
  Q 389.37 272.33 382.36 272.70
  Q 360.07 273.88 348.36 274.84
  Q 339.84 275.55 334.87 282.56
  Q 334.19 283.52 334.23 284.44
  Q 334.27 285.40 334.63 286.48"
/>
<path stroke="#86f2ef" vector-effect="non-scaling-stroke" d="
  M 334.63 286.48
  Q 333.46 286.19 333.50 286.75
  Q 333.91 293.32 333.30 301.05
  A 4.15 4.13 65.1 0 1 332.55 303.12
  Q 331.71 304.30 330.35 308.03
  Q 329.91 309.23 326.28 314.82
  C 324.21 318.02 320.97 320.83 317.95 322.43
  Q 314.66 324.18 313.62 325.03
  A 2.11 1.96 -68.5 0 1 312.83 325.41
  Q 304.06 327.51 297.25 327.52
  Q 279.74 327.57 268.43 327.77
  C 237.46 328.32 206.35 328.03 175.57 328.41
  C 130.17 328.97 95.28 328.65 55.30 329.21
  Q 43.11 329.37 39.74 330.03
  Q 34.37 331.07 30.30 336.02
  Q 24.59 342.95 27.28 350.70"
/>
<path stroke="#55e6e5" vector-effect="non-scaling-stroke" d="
  M 27.28 350.70
  C 25.05 345.56 25.51 341.02 25.45 334.09"
/>
<path stroke="#49e1e1" vector-effect="non-scaling-stroke" d="
  M 25.45 334.09
  Q 29.32 329.82 35.55 327.69"
/>
<path stroke="#34d1d6" vector-effect="non-scaling-stroke" d="
  M 35.55 327.69
  Q 43.56 325.67 49.75 325.67
  C 131.50 325.58 212.32 324.84 297.40 324.72
  C 308.14 324.71 317.45 322.59 324.14 313.64
  Q 330.32 305.36 331.04 294.21"
/>
<path stroke="#34c4c6" vector-effect="non-scaling-stroke" d="
  M 331.04 294.21
  C 331.69 284.03 329.64 276.21 320.71 270.46
  Q 313.61 265.89 303.25 265.93
  C 218.05 266.28 168.60 266.26 124.63 266.89
  C 114.02 267.04 105.29 261.76 103.83 250.65"
/>
<path stroke="#34d1d6" vector-effect="non-scaling-stroke" d="
  M 103.83 250.65
  Q 102.97 245.03 105.36 239.49"
/>
<path stroke="#49e1e1" vector-effect="non-scaling-stroke" d="
  M 105.36 239.49
  C 109.94 229.48 119.59 225.82 130.26 225.77
  Q 172.25 225.54 174.51 225.46
  Q 184.92 225.11 190.24 223.70
  C 200.31 221.02 208.28 214.08 215.43 206.68
  Q 229.76 191.86 244.17 177.66
  Q 261.42 160.65 282.81 138.47
  C 288.43 132.65 295.58 125.75 301.61 119.61
  Q 304.51 116.64 311.30 111.65"
/>
<path stroke="#01a9b2" vector-effect="non-scaling-stroke" d="
  M 103.83 250.65
  Q 99.44 254.56 95.15 251.96"
/>
<path stroke="#00647e" vector-effect="non-scaling-stroke" d="
  M 550.38 317.72
  Q 549.45 326.91 544.61 334.66"
/>
<path stroke="#096c81" vector-effect="non-scaling-stroke" d="
  M 544.61 334.66
  C 536.07 343.57 527.82 352.71 519.09 361.41
  Q 513.55 366.93 509.60 371.40
  C 499.70 382.58 488.39 392.56 477.79 404.28
  C 473.12 409.44 468.71 413.42 464.28 418.45
  Q 462.43 420.55 459.57 423.39
  C 442.52 440.32 433.29 449.25 418.60 464.42
  Q 403.72 479.79 392.93 490.26
  C 388.42 494.62 384.64 499.65 380.05 504.04
  C 372.00 511.75 363.86 520.07 354.95 526.02"
/>
<path stroke="#008596" vector-effect="non-scaling-stroke" d="
  M 354.95 526.02
  C 358.10 523.03 361.88 520.10 364.61 517.24
  Q 370.06 511.51 372.00 509.70
  C 378.77 503.38 383.74 497.47 390.79 490.71
  Q 397.19 484.59 402.27 479.35
  C 414.80 466.43 438.49 443.78 456.04 424.37
  C 460.96 418.92 466.42 414.33 470.76 409.76
  Q 480.03 399.98 491.90 388.08
  C 500.12 379.84 504.88 374.57 513.87 365.36
  Q 514.79 364.41 522.44 356.93
  Q 532.63 346.96 540.46 334.96
  Q 543.32 330.59 545.17 325.70"
/>
<path stroke="#0192a6" vector-effect="non-scaling-stroke" d="
  M 545.17 325.70
  Q 546.06 323.60 546.39 321.22
  Q 547.52 313.15 547.93 305.01
  Q 548.80 287.52 549.35 269.92"
/>
<path stroke="#01979e" stroke-opacity="0.525" vector-effect="non-scaling-stroke" d="
  M 590.74 179.27
  L 589.51 200.29"
/>
<path stroke="#019198" stroke-opacity="0.576" vector-effect="non-scaling-stroke" d="
  M 589.51 200.29
  L 589.21 201.05"
/>
<path stroke="#008596" vector-effect="non-scaling-stroke" d="
  M 589.21 201.05
  C 588.38 183.50 586.69 167.03 574.57 153.73
  C 570.59 149.35 564.42 144.70 559.48 139.87
  A 0.28 0.28 0.0 0 0 559.00 140.06
  L 552.04 294.29"
/>
<path stroke="#007b8a" vector-effect="non-scaling-stroke" d="
  M 552.04 294.29
  L 550.38 317.72"
/>
<path stroke="#008596" vector-effect="non-scaling-stroke" d="
  M 550.38 317.72
  C 549.84 318.38 549.44 319.13 549.37 319.88
  Q 549.37 319.75 549.37 319.65
  Q 549.64 303.51 550.27 291.70
  C 551.43 269.64 551.83 249.36 553.60 226.67
  C 554.59 214.04 554.31 201.31 555.03 188.68
  Q 555.37 182.76 555.08 176.05
  A 0.14 0.14 0.0 0 0 554.80 176.01
  L 553.49 180.30"
/>
<path stroke="#01a9b2" vector-effect="non-scaling-stroke" d="
  M 545.17 325.70
  C 542.28 329.41 539.68 329.76 536.28 331.37
  A 9.64 9.60 6.2 0 0 532.79 334.16
  C 530.16 337.54 527.06 341.80 523.48 345.37
  Q 519.76 349.08 509.96 359.77
  C 500.55 370.04 490.18 380.45 479.85 391.76
  Q 474.52 397.59 466.20 405.77
  C 460.87 411.00 454.03 418.79 447.05 425.29
  C 439.55 432.26 431.99 441.25 427.31 445.06
  Q 422.36 449.09 413.11 458.85
  Q 407.06 465.24 396.47 474.30"
/>
<path stroke="#16c5cd" vector-effect="non-scaling-stroke" d="
  M 396.47 474.30
  Q 428.67 441.32 461.12 408.62
  Q 466.16 403.54 475.27 393.77
  C 489.66 378.34 509.57 359.17 526.43 340.67"
/>
<path stroke="#16c5cd" vector-effect="non-scaling-stroke" d="
  M 35.55 327.69
  Q 34.34 327.76 34.03 327.39
  A 0.58 0.38 -28.5 0 1 34.40 326.71
  Q 40.63 323.99 46.69 323.61
  Q 71.89 322.02 75.13 321.81
  Q 82.93 321.31 89.55 317.87
  A 2.15 2.08 30.0 0 1 90.47 317.64
  Q 92.78 317.62 93.51 317.65
  Q 93.71 317.66 93.51 317.55
  Q 91.93 316.72 91.53 316.69
  Q 88.72 316.50 85.95 316.00"
/>
<path stroke="#01a9b2" vector-effect="non-scaling-stroke" d="
  M 94.72 315.90
  L 96.29 315.88"
/>
<path stroke="#01a9b2" vector-effect="non-scaling-stroke" d="
  M 96.48 315.87
  L 101.71 315.85"
/>
<path stroke="#02afbc" stroke-opacity="0.525" vector-effect="non-scaling-stroke" d="
  M 146.44 315.58
  Q 221.23 315.43 296.15 315.10
  Q 307.32 315.05 311.66 313.47
  Q 320.02 310.43 324.75 301.95"
/>
<path stroke="#22cad1" vector-effect="non-scaling-stroke" d="
  M 540.97 264.18
  Q 539.97 288.25 539.05 312.25
  C 538.73 320.69 535.43 329.53 529.85 336.26
  Q 528.00 338.49 526.43 340.67"
/>
<path stroke="#36dadc" vector-effect="non-scaling-stroke" d="
  M 526.43 340.67
  Q 512.99 348.35 500.87 349.76
  Q 464.39 354.01 439.69 360.77
  C 429.12 363.66 418.11 367.94 405.48 370.89
  C 388.28 374.90 369.97 380.78 352.20 383.94
  Q 335.18 386.97 299.19 392.72
  C 284.05 395.14 271.52 397.97 256.61 401.05
  A 0.36 0.36 0.0 0 1 256.18 400.66
  Q 256.90 393.99 254.55 388.95"
/>
<path stroke="#73ecea" vector-effect="non-scaling-stroke" d="
  M 254.55 388.95
  L 252.09 381.16
  A 0.46 0.46 0.0 0 0 251.19 381.29
  C 251.13 384.21 251.92 387.16 251.97 389.95
  Q 252.26 406.07 240.93 417.51"
/>
<path stroke="#22cad1" vector-effect="non-scaling-stroke" d="
  M 240.93 417.51
  L 232.95 420.96
  A 0.15 0.15 0.0 0 1 232.76 420.88
  A 0.15 0.14 -28.5 0 1 232.82 420.69
  C 241.03 415.98 246.11 407.75 248.51 398.49"
/>
<path stroke="#21bec1" vector-effect="non-scaling-stroke" d="
  M 248.51 398.49
  Q 250.39 386.29 245.84 375.06
  A 3.75 3.71 16.1 0 0 245.37 374.22
  C 238.71 365.25 229.54 362.65 218.62 362.61
  Q 202.73 362.54 132.77 363.06
  C 109.50 363.23 100.13 363.19 83.38 363.38
  Q 70.08 363.53 64.57 363.25
  C 57.21 362.87 49.62 363.92 42.74 363.07
  Q 39.61 362.69 38.20 362.69
  C 31.39 362.70 25.52 359.96 23.08 353.21"
/>
<path stroke="#22cad1" vector-effect="non-scaling-stroke" d="
  M 23.08 353.21
  Q 21.47 349.47 21.48 345.20"
/>
<path stroke="#36dadc" vector-effect="non-scaling-stroke" d="
  M 21.48 345.20
  Q 21.69 339.35 25.45 334.09"
/>
<path stroke="#73ecea" vector-effect="non-scaling-stroke" d="
  M 27.28 350.70
  Q 28.62 354.65 31.43 357.92
  A 0.64 0.63 -36.2 0 0 32.24 358.04
  L 32.25 358.03
  A 0.47 0.45 -34.6 0 0 32.38 357.37
  Q 26.28 349.08 30.67 339.66
  A 2.74 2.68 81.2 0 1 31.27 338.82
  Q 33.76 336.47 34.43 336.14
  Q 41.05 332.91 49.50 332.84
  Q 103.10 332.41 134.33 332.42
  C 189.69 332.44 242.23 331.41 299.00 331.11
  C 313.44 331.04 330.38 323.35 334.22 307.98
  Q 336.88 297.28 334.63 286.48"
/>
<path stroke="#01a9b2" vector-effect="non-scaling-stroke" d="
  M 331.04 294.21
  Q 330.42 287.64 327.39 284.90"
/>
<path stroke="#007b8a" vector-effect="non-scaling-stroke" d="
  M 327.39 284.90
  Q 323.14 273.27 311.39 272.10"
/>
<path stroke="#09838d" vector-effect="non-scaling-stroke" d="
  M 311.39 272.10
  Q 304.59 271.29 302.25 271.30
  Q 249.13 271.35 196.01 271.82
  C 182.87 271.94 163.99 272.62 147.96 272.52"
/>
<path stroke="#007b8a" vector-effect="non-scaling-stroke" d="
  M 147.96 272.52
  C 137.56 272.09 127.50 272.28 116.79 271.23
  Q 113.23 270.88 111.04 270.00
  C 107.11 268.41 105.30 267.62 102.05 263.92
  Q 100.38 262.01 98.30 260.54"
/>
<path stroke="#16c5cd" vector-effect="non-scaling-stroke" d="
  M 21.48 345.20
  L 13.30 340.73"
/>
<path stroke="#09838d" vector-effect="non-scaling-stroke" d="
  M 354.95 526.02
  C 345.49 532.58 336.52 536.50 324.56 535.08
  Q 314.63 533.90 305.08 529.42"
/>
<path stroke="#01a9b2" vector-effect="non-scaling-stroke" d="
  M 174.40 447.29
  L 182.86 445.45
  A 0.55 0.54 78.5 0 1 183.52 445.89
  C 185.03 454.49 190.36 457.81 197.77 460.95
  A 2.30 2.28 56.0 0 0 198.73 461.14
  L 218.50 461.06"
/>
<path stroke="#15b9bd" vector-effect="non-scaling-stroke" d="
  M 218.50 461.06
  Q 226.41 461.38 229.31 461.91
  Q 232.37 462.47 238.48 464.78"
/>
<path stroke="#01a9b2" vector-effect="non-scaling-stroke" d="
  M 238.48 464.78
  L 248.44 469.04"
/>
<path stroke="#15b9bd" vector-effect="non-scaling-stroke" d="
  M 248.44 469.04
  Q 257.01 474.86 259.32 476.94
  Q 270.10 486.65 280.77 496.49"
/>
<path stroke="#01a9b2" vector-effect="non-scaling-stroke" d="
  M 280.77 496.49
  Q 289.87 504.75 298.80 513.20
  Q 307.83 521.74 312.97 525.04
  C 320.27 529.72 331.08 529.73 338.71 526.42
  Q 345.88 523.31 348.34 521.24
  Q 359.79 511.64 371.08 499.90
  C 377.86 492.84 383.41 487.34 389.59 481.04"
/>
<path stroke="#15b9bd" vector-effect="non-scaling-stroke" d="
  M 389.59 481.04
  L 396.47 474.30"
/>
<path stroke="#015870" stroke-opacity="0.525" vector-effect="non-scaling-stroke" d="
  M 465.21 477.80
  L 408.65 534.04"
/>
<path stroke="#015870" stroke-opacity="0.525" vector-effect="non-scaling-stroke" d="
  M 339.48 564.89
  Q 332.37 563.36 326.31 560.16"
/>
<path stroke="#015870" stroke-opacity="0.525" vector-effect="non-scaling-stroke" d="
  M 282.78 519.11
  Q 269.73 505.28 256.71 491.37
  C 255.73 490.32 254.99 488.94 253.30 488.93
  Q 245.38 488.89 227.40 488.93
  C 224.33 488.93 221.35 488.33 218.33 487.84"
/>
<path stroke="#007b8a" vector-effect="non-scaling-stroke" d="
  M 177.05 454.90
  Q 179.05 455.85 180.71 457.76
  A 3.88 3.81 82.1 0 0 181.97 458.73
  Q 185.26 460.33 188.87 462.64
  Q 190.14 463.44 196.72 465.28
  Q 200.47 466.33 204.89 466.41
  Q 219.32 466.66 224.79 467.23
  C 237.71 468.57 245.03 475.15 253.99 484.37
  A 1.29 0.99 74.3 0 0 254.27 484.58
  L 264.78 489.92
  A 0.09 0.03 16.8 0 1 264.81 489.94
  Q 280.72 506.20 297.78 522.83
  Q 299.10 524.11 301.40 526.09
  Q 303.26 527.70 305.08 529.42"
/>
<path stroke="#096175" vector-effect="non-scaling-stroke" d="
  M 305.08 529.42
  Q 319.75 541.68 338.79 537.70
  C 347.86 535.81 356.08 531.37 362.94 525.42
  Q 370.93 518.47 382.05 507.05
  Q 425.72 462.18 455.21 432.46
  C 466.05 421.52 486.14 399.03 500.78 385.03
  Q 509.13 377.05 515.92 369.43
  C 525.75 358.40 537.66 348.03 544.61 334.66"
/>
<path stroke="#01566f" stroke-opacity="0.576" vector-effect="non-scaling-stroke" d="
  M 339.48 564.89
  Q 351.39 567.12 361.97 564.88
  Q 379.75 561.13 394.06 548.04
  Q 401.55 541.19 408.65 534.04"
/>
<path stroke="#01566f" stroke-opacity="0.576" vector-effect="non-scaling-stroke" d="
  M 465.21 477.80
  L 465.54 477.13
  A 0.86 0.73 85.3 0 1 465.69 476.92
  Q 503.93 439.41 540.92 400.66
  Q 546.23 395.10 565.23 373.21"
/>
<path stroke="#016983" stroke-opacity="0.576" vector-effect="non-scaling-stroke" d="
  M 589.21 201.05
  Q 589.10 209.15 588.32 217.23
  C 587.93 221.23 588.14 225.05 587.74 228.34
  Q 587.14 233.24 587.06 236.68
  Q 586.92 242.25 585.79 258.56
  C 583.75 287.79 582.19 320.33 580.66 338.48
  Q 579.01 358.17 565.23 373.21"
/>
<path stroke="#00647e" vector-effect="non-scaling-stroke" d="
  M 565.23 373.21
  Q 558.87 359.71 555.44 345.36
  C 551.51 328.92 552.23 311.08 552.04 294.29"
/>
<path stroke="#16c5cd" vector-effect="non-scaling-stroke" d="
  M 389.59 481.04
  Q 376.98 483.10 372.31 483.31
  Q 349.10 484.36 325.74 487.38
  C 317.42 488.46 304.22 489.78 294.44 492.13
  Q 289.05 493.42 280.77 496.49"
/>
<path stroke="#16c5cd" vector-effect="non-scaling-stroke" d="
  M 248.44 469.04
  Q 243.85 465.87 238.48 464.78"
/>
<path stroke="#16c5cd" vector-effect="non-scaling-stroke" d="
  M 218.50 461.06
  C 209.72 461.00 195.87 461.19 191.71 453.78"
/>
<path stroke="#36dadc" vector-effect="non-scaling-stroke" d="
  M 191.71 453.78
  L 195.70 456.75
  A 0.24 0.24 0.0 0 0 196.02 456.40
  L 193.46 453.46"
/>
<path stroke="#16c5cd" vector-effect="non-scaling-stroke" d="
  M 193.46 453.46
  L 192.58 451.77"
/>
<path stroke="#67e7e6" vector-effect="non-scaling-stroke" d="
  M 192.58 451.77
  Q 190.85 447.50 191.03 442.81
  C 191.33 435.02 196.81 432.07 203.76 431.05
  Q 208.69 430.33 215.91 430.23
  Q 223.71 430.13 228.00 429.09
  Q 244.26 425.17 251.42 410.66
  Q 256.11 401.16 254.55 388.95"
/>
<path stroke="#096175" vector-effect="non-scaling-stroke" d="
  M 147.96 272.52
  Q 192.95 273.62 220.07 273.64
  Q 231.73 273.64 249.55 272.81
  C 269.02 271.89 283.98 271.77 301.63 272.25
  Q 306.38 272.38 311.39 272.10"
/>
<path stroke="#01879a" vector-effect="non-scaling-stroke" d="
  M 327.39 284.90
  Q 330.09 295.45 324.75 301.95"
/>
<path stroke="#015870" stroke-opacity="0.525" vector-effect="non-scaling-stroke" d="
  M 324.75 301.95
  Q 324.25 301.56 323.54 301.57"
/>
<path stroke="#023b4d" stroke-opacity="0.984" vector-effect="non-scaling-stroke" d="
  M 323.54 301.57
  C 321.18 301.22 318.97 300.94 316.47 300.97
  Q 256.07 301.59 188.25 301.54
  Q 173.90 301.54 154.35 301.78
  Q 148.45 301.86 145.18 301.28
  Q 138.62 300.12 136.27 299.03
  Q 133.64 297.82 124.22 291.75"
/>
<path stroke="#01a9b2" vector-effect="non-scaling-stroke" d="
  M 23.08 353.21
  C 19.16 352.18 16.39 353.06 13.01 349.40"
/>
<path stroke="#01a9b2" vector-effect="non-scaling-stroke" d="
  M 248.51 398.49
  Q 247.56 398.78 246.99 397.99
  A 1.02 0.98 27.3 0 1 246.80 397.44
  Q 246.55 392.63 246.45 387.81
  Q 246.39 384.90 244.17 382.56"
/>
<path stroke="#007b8a" vector-effect="non-scaling-stroke" d="
  M 244.17 382.56
  C 241.01 373.70 234.35 368.38 224.77 368.30
  Q 213.12 368.22 201.45 368.10"
/>
<path stroke="#01a9b2" vector-effect="non-scaling-stroke" d="
  M 201.45 368.10
  L 204.29 367.53
  A 0.20 0.20 0.0 0 0 204.27 367.14
  Q 200.03 366.66 197.71 366.66
  Q 121.04 366.52 74.74 366.83
  Q 74.43 366.84 71.78 367.18
  A 0.41 0.41 0.0 0 0 71.65 367.95
  Q 72.39 368.32 79.25 368.22
  Q 86.23 368.12 93.22 368.29"
/>
<path stroke="#007b8a" vector-effect="non-scaling-stroke" d="
  M 93.22 368.29
  Q 71.11 368.88 49.00 368.81
  Q 46.53 368.80 39.19 368.34
  Q 32.29 367.91 29.54 366.95
  Q 23.56 364.88 18.48 360.95
  A 2.83 2.82 4.0 0 1 17.79 360.16
  L 13.85 353.59"
/>
<path stroke="#34d1d6" vector-effect="non-scaling-stroke" d="
  M 234.90 421.11
  Q 222.74 424.02 217.50 424.06
  C 204.42 424.17 192.62 422.46 185.19 435.04
  A 2.49 2.48 -52.6 0 0 185.59 438.08
  C 186.71 439.19 187.28 440.75 187.56 442.44
  Q 188.39 447.47 190.73 451.86"
/>
<path stroke="#22cad1" vector-effect="non-scaling-stroke" d="
  M 193.46 453.46
  Q 192.70 454.01 191.71 453.78"
/>
<path stroke="#02afbc" stroke-opacity="0.525" vector-effect="non-scaling-stroke" d="
  M 226.19 414.00
  Q 238.50 411.47 243.33 398.57"
/>
<path stroke="#036a76" stroke-opacity="0.984" vector-effect="non-scaling-stroke" d="
  M 243.33 398.57
  L 244.36 395.45"
/>
<path stroke="#53d7db" vector-effect="non-scaling-stroke" d="
  M 192.58 451.77
  Q 192.94 452.59 192.85 453.09
  A 0.49 0.49 0.0 0 1 192.11 453.41
  Q 191.34 452.93 190.73 451.86"
/>
<path stroke="#86f2ef" vector-effect="non-scaling-stroke" d="
  M 190.73 451.86
  C 186.85 440.46 187.47 428.83 202.24 427.75
  C 208.98 427.26 216.61 427.89 222.91 426.01
  Q 226.62 424.89 234.90 421.11"
/>
<path stroke="#53d7db" vector-effect="non-scaling-stroke" d="
  M 234.90 421.11
  L 240.93 417.51"
/>
<path stroke="#01879a" vector-effect="non-scaling-stroke" d="
  M 93.22 368.29
  L 201.45 368.10"
/>
<path stroke="#01879a" vector-effect="non-scaling-stroke" d="
  M 244.17 382.56
  Q 246.25 389.00 244.36 395.45"
/>
<path stroke="#023b4d" stroke-opacity="0.984" vector-effect="non-scaling-stroke" d="
  M 244.36 395.45
  Q 243.62 395.37 242.74 396.90
  A 0.81 0.81 0.0 0 1 242.02 397.31
  Q 207.25 397.00 172.50 397.27
  Q 166.00 397.32 133.50 397.06
  Q 96.81 396.77 59.84 397.51"
/>
<path stroke="#015870" stroke-opacity="0.525" vector-effect="non-scaling-stroke" d="
  M 59.84 397.51
  Q 55.35 397.08 50.49 395.01"
/>
<path stroke="#0192a6" vector-effect="non-scaling-stroke" d="
  M 139.64 421.85
  L 143.77 429.95"
/>
<path stroke="#01a9b2" vector-effect="non-scaling-stroke" d="
  M 143.77 429.95
  C 141.70 434.38 139.80 439.23 140.26 443.93"
/>
<path stroke="#0192a6" vector-effect="non-scaling-stroke" d="
  M 140.26 443.93
  C 144.07 438.16 146.19 434.99 143.63 428.33
  A 0.09 0.01 -49.3 0 1 143.68 428.25
  Q 143.70 428.22 143.70 428.14
  A 0.14 0.04 54.6 0 1 143.85 428.26
  Q 148.68 437.60 141.23 444.20"
/>
<path stroke="#01a9b2" vector-effect="non-scaling-stroke" d="
  M 141.23 444.20
  L 140.17 447.05"
/>
<path stroke="#0192a6" vector-effect="non-scaling-stroke" d="
  M 140.17 447.05
  Q 138.18 455.26 129.45 459.16"
/>
<path stroke="#01a9b2" vector-effect="non-scaling-stroke" d="
  M 129.45 459.16
  C 133.67 456.85 137.47 453.77 138.62 448.89
  Q 140.22 442.09 139.11 435.92"
/>
<path stroke="#16c5cd" vector-effect="non-scaling-stroke" d="
  M 139.11 435.92
  Q 138.64 434.46 138.08 434.06
  A 0.54 0.53 -72.1 0 0 137.23 434.50
  L 137.23 436.53
  A 0.59 0.58 83.1 0 1 136.79 437.10
  L 132.03 438.28
  A 0.46 0.45 75.8 0 1 131.47 437.94
  L 131.37 437.56
  A 0.08 0.08 0.0 0 1 131.43 437.46
  L 136.29 436.25
  A 0.70 0.69 -7.2 0 0 136.83 435.56
  Q 136.81 433.62 135.24 431.67"
/>
<path stroke="#22cad1" vector-effect="non-scaling-stroke" d="
  M 135.24 431.67
  C 126.55 424.97 115.26 423.95 104.99 427.52"
/>
<path stroke="#16c5cd" vector-effect="non-scaling-stroke" d="
  M 104.99 427.52
  Q 92.90 431.95 92.70 445.39"
/>
<path stroke="#01a9b2" vector-effect="non-scaling-stroke" d="
  M 92.70 445.39
  Q 88.73 443.67 84.03 444.88"
/>
<path stroke="#36dadc" vector-effect="non-scaling-stroke" d="
  M 135.24 431.67
  Q 133.64 434.14 130.95 435.21
  A 0.91 0.91 0.0 0 1 129.96 435.01
  Q 128.19 433.21 126.49 432.33
  C 124.21 431.15 122.05 428.52 119.34 427.96
  Q 114.86 427.03 110.22 427.10
  A 3.69 3.55 -56.8 0 0 108.74 427.44
  Q 105.97 428.71 104.99 427.52"
/>
<path stroke="#09838d" vector-effect="non-scaling-stroke" d="
  M 125.71 460.87
  Q 112.70 467.21 98.96 461.60"
/>
<path stroke="#007b8a" vector-effect="non-scaling-stroke" d="
  M 98.96 461.60
  L 86.50 454.21"
/>
<path stroke="#01a9b2" vector-effect="non-scaling-stroke" d="
  M 106.83 459.93
  Q 114.17 461.37 119.28 458.36
  Q 120.53 457.63 125.91 453.03
  C 128.83 450.54 130.30 447.37 134.41 447.10
  C 137.58 446.89 138.93 443.93 139.40 441.11"
/>
<path stroke="#15b9bd" vector-effect="non-scaling-stroke" d="
  M 139.11 435.92
  Q 136.84 440.74 131.43 441.99
  A 0.14 0.14 0.0 0 0 131.46 442.26
  Q 136.17 442.32 139.15 439.59
  A 0.21 0.21 0.0 0 1 139.50 439.76
  L 139.40 441.11"
/>
<path stroke="#16c5cd" vector-effect="non-scaling-stroke" d="
  M 139.40 441.11
  Q 137.06 445.64 133.21 444.53
  A 2.61 1.98 -70.0 0 0 130.60 446.22
  Q 130.08 447.54 129.47 447.85
  A 0.08 0.08 0.0 0 1 129.37 447.73
  Q 130.26 446.70 130.25 445.99
  A 0.30 0.29 62.5 0 0 129.72 445.82
  C 123.47 454.41 118.30 460.24 106.83 459.93"
/>
<path stroke="#15b9bd" vector-effect="non-scaling-stroke" d="
  M 106.83 459.93
  C 99.18 458.13 93.72 453.73 92.70 445.39"
/>
<path stroke="#00647e" vector-effect="non-scaling-stroke" d="
  M 156.46 438.23
  Q 158.13 441.35 160.02 444.36
  C 162.80 448.78 163.65 451.54 163.66 456.17
  A 0.63 0.63 0.0 0 1 163.15 456.80
  Q 153.17 458.72 144.40 453.49"
/>
<path stroke="#096c81" vector-effect="non-scaling-stroke" d="
  M 144.40 453.49
  L 147.27 446.66
  A 0.15 0.15 0.0 0 0 147.20 446.47
  L 147.19 446.47
  A 0.14 0.14 0.0 0 0 147.01 446.55
  Q 145.14 450.99 143.12 452.62
  Q 140.26 454.93 130.09 461.16
  Q 127.54 461.77 125.71 460.87"
/>
<path stroke="#008596" vector-effect="non-scaling-stroke" d="
  M 125.71 460.87
  L 129.45 459.16"
/>
<path stroke="#008596" vector-effect="non-scaling-stroke" d="
  M 140.17 447.05
  Q 143.95 446.57 145.58 443.74
  A 0.38 0.38 0.0 0 0 145.16 443.19
  L 141.23 444.20"
/>
<path stroke="#008596" vector-effect="non-scaling-stroke" d="
  M 140.26 443.93
  C 141.65 439.20 144.06 435.15 143.77 429.95"
/>
<path stroke="#015870" stroke-opacity="0.525" vector-effect="non-scaling-stroke" d="
  M 164.25 449.13
  L 165.90 455.94"
/>
<path stroke="#023b4d" stroke-opacity="0.984" vector-effect="non-scaling-stroke" d="
  M 165.90 455.94
  L 165.90 458.71"
/>
<path stroke="#015870" stroke-opacity="0.525" vector-effect="non-scaling-stroke" d="
  M 165.90 458.71
  L 165.91 461.54"
/>
<path stroke="#023b4d" stroke-opacity="0.984" vector-effect="non-scaling-stroke" d="
  M 165.91 461.54
  L 165.88 462.48"
/>
<path stroke="#015870" stroke-opacity="0.525" vector-effect="non-scaling-stroke" d="
  M 165.88 462.48
  Q 164.59 471.47 158.22 477.48
  Q 149.05 486.14 136.00 486.89
  Q 126.95 487.42 118.92 483.73"
/>
<path stroke="#096175" vector-effect="non-scaling-stroke" d="
  M 98.96 461.60
  L 91.61 458.60
  A 0.25 0.24 76.7 0 0 91.36 459.01
  Q 93.76 461.17 95.98 462.78
  C 101.59 466.84 108.57 467.71 116.37 467.56
  C 128.28 467.33 137.16 462.42 144.40 453.49"
/>
<path stroke="#096c81" vector-effect="non-scaling-stroke" d="
  M 130.09 461.16
  L 127.50 462.22"
/>
<path stroke="#096c81" vector-effect="non-scaling-stroke" d="
  M 127.50 462.22
  Q 127.37 462.29 127.25 462.37
  Q 127.24 462.38 127.25 462.37
  Q 127.37 462.29 127.50 462.22"
/>
<path stroke="#096c81" vector-effect="non-scaling-stroke" d="
  M 127.50 462.22
  L 130.09 461.16"
/>
<path stroke="#49e1e1" vector-effect="non-scaling-stroke" d="
  M 427.29 197.63
  Q 427.96 202.67 429.34 207.51
  Q 429.63 208.54 430.35 208.94
  A 0.41 0.38 4.1 0 1 430.50 209.10
  L 434.01 215.54
  A 1.36 1.34 -12.6 0 0 435.13 216.24
  L 438.76 216.41"
/>
<path stroke="#34a3ae" vector-effect="non-scaling-stroke" d="
  M 438.76 216.41
  Q 438.88 216.74 438.98 216.64"
/>
<path stroke="#49e1e1" vector-effect="non-scaling-stroke" d="
  M 438.98 216.64
  Q 437.96 217.78 436.53 217.71"
/>
<path stroke="#55e6e5" vector-effect="non-scaling-stroke" d="
  M 436.53 217.71
  Q 436.50 216.91 436.12 216.71
  A 0.32 0.32 0.0 0 0 435.72 217.19
  L 436.25 217.83"
/>
<path stroke="#49e1e1" vector-effect="non-scaling-stroke" d="
  M 436.25 217.83
  L 438.25 219.91
  A 0.59 0.56 26.7 0 1 438.41 220.35
  Q 438.30 221.38 439.90 221.60
  A 0.89 0.85 -22.2 0 1 440.28 221.75
  L 447.36 226.70"
/>
<path stroke="#86f2ef" vector-effect="non-scaling-stroke" d="
  M 447.36 226.70
  L 451.84 231.24
  A 6.68 6.59 -12.9 0 0 454.48 232.87
  Q 466.03 236.64 477.08 233.93
  Q 499.27 228.48 507.65 208.04
  C 511.92 197.63 511.73 188.02 509.00 177.66
  Q 508.69 176.49 507.77 175.22
  A 0.39 0.39 0.0 0 0 507.07 175.45
  Q 507.06 177.32 507.95 179.40
  A 4.70 4.55 28.1 0 1 508.20 180.18
  Q 510.36 190.53 507.24 201.70
  Q 505.11 209.35 500.45 214.69
  Q 495.12 220.80 489.62 224.91
  C 482.26 230.40 471.81 231.77 462.71 230.81"
/>
<path stroke="#55e6e5" vector-effect="non-scaling-stroke" d="
  M 462.71 230.81
  Q 470.22 231.17 477.17 228.96"
/>
<path stroke="#49e1e1" vector-effect="non-scaling-stroke" d="
  M 477.17 228.96
  Q 495.49 221.97 503.15 205.04"
/>
<path stroke="#34d1d6" vector-effect="non-scaling-stroke" d="
  M 503.15 205.04
  Q 506.33 194.94 505.73 185.07
  C 505.47 180.76 504.00 177.39 502.79 173.44
  A 4.01 3.69 23.0 0 0 502.35 172.47
  Q 500.86 170.12 500.84 169.98
  A 1.07 1.06 11.2 0 0 500.26 169.12
  Q 499.42 168.69 497.36 165.29
  A 0.17 0.17 0.0 0 1 497.42 165.05
  L 497.42 165.04
  A 0.15 0.14 59.7 0 1 497.59 165.09
  L 500.26 168.49
  A 0.09 0.09 0.0 0 0 500.42 168.43
  Q 500.42 168.42 500.25 168.20
  Q 497.39 164.30 495.62 162.58
  A 1.71 1.67 72.3 0 0 494.83 162.16
  Q 492.51 161.68 491.17 159.57
  Q 490.66 158.76 488.19 158.29"
/>
<path stroke="#34c4c6" vector-effect="non-scaling-stroke" d="
  M 488.19 158.29
  C 469.93 149.65 448.41 154.56 435.78 169.78
  Q 428.13 178.99 427.51 191.75
  Q 427.37 194.80 427.29 197.63"
/>
<path stroke="#01a9b2" vector-effect="non-scaling-stroke" d="
  M 488.19 158.29
  Q 490.66 159.59 491.09 161.47
  A 0.64 0.64 0.0 0 1 490.23 162.21
  L 485.14 160.19
  A 0.27 0.27 0.0 0 0 484.85 160.26
  L 484.84 160.28
  A 0.26 0.26 0.0 0 0 484.94 160.63
  Q 489.15 163.05 492.25 166.81"
/>
<path stroke="#007b8a" vector-effect="non-scaling-stroke" d="
  M 492.25 166.81
  C 482.89 158.89 469.82 157.81 457.98 161.02
  Q 445.97 164.28 439.47 173.52
  Q 435.07 179.78 433.58 184.61
  Q 431.30 192.00 431.99 201.97
  A 0.19 0.19 0.0 0 1 431.74 202.16
  L 431.43 202.03
  A 0.14 0.13 7.6 0 1 431.34 201.92
  L 430.74 198.91"
/>
<path stroke="#008596" vector-effect="non-scaling-stroke" d="
  M 430.74 198.91
  Q 430.35 197.58 430.71 197.12
  Q 431.26 196.40 431.27 196.34
  Q 431.62 193.85 430.73 191.26"
/>
<path stroke="#008596" vector-effect="non-scaling-stroke" d="
  M 430.73 191.26
  Q 431.21 189.13 431.43 187.01
  Q 431.44 186.93 431.43 186.90
  A 0.11 0.02 -73.8 0 0 431.36 187.03
  Q 430.96 189.11 430.73 191.26"
/>
<path stroke="#008596" vector-effect="non-scaling-stroke" d="
  M 430.73 191.26
  L 430.13 202.20"
/>
<path stroke="#007b8a" vector-effect="non-scaling-stroke" d="
  M 430.13 202.20
  L 429.39 204.96"
/>
<path stroke="#15b9bd" vector-effect="non-scaling-stroke" d="
  M 429.39 204.96
  L 427.29 197.63"
/>
<path stroke="#16c5cd" vector-effect="non-scaling-stroke" d="
  M 503.15 205.04
  Q 499.98 204.66 496.74 205.34"
/>
<path stroke="#02a6b4" stroke-opacity="0.576" vector-effect="non-scaling-stroke" d="
  M 499.47 198.83
  Q 501.06 192.85 500.33 187.06"
/>
<path stroke="#01879a" vector-effect="non-scaling-stroke" d="
  M 500.33 187.06
  C 501.14 178.61 497.77 172.68 492.25 166.81"
/>
<path stroke="#01566f" stroke-opacity="0.576" vector-effect="non-scaling-stroke" d="
  M 500.33 187.06
  Q 500.87 184.08 498.52 183.95
  Q 491.49 183.58 483.05 186.09
  Q 466.30 191.08 457.95 206.47
  Q 453.36 214.94 453.65 224.51
  Q 453.68 225.46 454.97 225.67"
/>
<path stroke="#1597a5" vector-effect="non-scaling-stroke" d="
  M 454.97 225.67
  L 454.44 225.77
  A 1.94 1.86 46.2 0 1 453.50 225.73
  Q 445.03 223.23 438.98 216.64"
/>
<path stroke="#1597a5" vector-effect="non-scaling-stroke" d="
  M 438.76 216.41
  L 437.55 214.97"
/>
<path stroke="#01879a" vector-effect="non-scaling-stroke" d="
  M 437.55 214.97
  Q 433.50 209.25 431.68 202.29
  A 0.42 0.41 74.9 0 0 431.18 202.00
  L 430.79 202.09
  A 0.46 0.46 0.0 0 0 430.46 202.68
  Q 431.05 204.55 430.91 206.57"
/>
<path stroke="#1597a5" vector-effect="non-scaling-stroke" d="
  M 430.91 206.57
  L 429.39 204.96"
/>
<path stroke="#00647e" vector-effect="non-scaling-stroke" d="
  M 430.13 202.20
  L 430.74 198.91"
/>
<path stroke="#16c5cd" vector-effect="non-scaling-stroke" d="
  M 430.91 206.57
  L 431.20 206.07
  A 0.23 0.23 0.0 0 1 431.62 206.12
  Q 431.76 206.61 431.85 208.77
  A 0.13 0.13 0.0 0 1 431.72 208.91
  L 431.45 208.91
  A 0.19 0.18 84.2 0 1 431.27 208.76
  Q 431.03 207.27 430.18 206.84
  A 0.21 0.21 0.0 0 0 429.91 207.13
  L 433.92 214.08
  A 1.18 1.16 -11.2 0 0 434.80 214.66
  L 437.55 214.97"
/>
<path stroke="#36dadc" vector-effect="non-scaling-stroke" d="
  M 477.17 228.96
  Q 463.12 230.39 449.73 227.32"
/>
<path stroke="#36dadc" vector-effect="non-scaling-stroke" d="
  M 436.25 217.83
  Q 436.39 217.77 436.53 217.71"
/>
<path stroke="#26c2c7" stroke-opacity="0.576" vector-effect="non-scaling-stroke" d="
  M 457.16 226.02
  L 454.97 225.67"
/>
<path stroke="#67e7e6" vector-effect="non-scaling-stroke" d="
  M 447.36 226.70
  L 449.73 227.32"
/>
<path stroke="#86f2ef" vector-effect="non-scaling-stroke" d="
  M 449.73 227.32
  Q 449.25 227.03 449.02 227.23
  Q 448.76 227.44 449.03 227.67
  Q 449.20 227.83 449.53 227.90"
/>
<path stroke="#73ecea" vector-effect="non-scaling-stroke" d="
  M 449.53 227.90
  Q 455.73 230.80 462.71 230.81"
/>
<path stroke="#55e6e5" vector-effect="non-scaling-stroke" d="
  M 449.73 227.32
  Q 449.62 227.45 449.53 227.90"
/>
<path stroke="#55e6e5" vector-effect="non-scaling-stroke" d="
  M 457.2369 229.7780
  A 1.51 0.27 -167.3 0 0 458.6506 230.3734
  A 1.51 0.27 -167.3 0 0 460.1831 230.4420
  A 1.51 0.27 -167.3 0 0 458.7694 229.8466
  A 1.51 0.27 -167.3 0 0 457.2369 229.7780"
/>
<path stroke="#49e1e1" vector-effect="non-scaling-stroke" d="
  M 125.31 433.76
  C 121.83 428.80 114.50 429.06 108.79 429.63
  Q 101.55 430.34 97.77 436.68
  A 3.17 3.01 -23.5 0 0 97.44 437.46
  Q 95.82 443.53 98.78 449.06
  A 0.61 0.60 -47.9 0 0 99.87 449.00
  C 100.55 447.34 99.50 446.02 99.63 444.27
  Q 100.14 437.08 106.25 434.04
  Q 113.90 430.24 121.69 432.91
  Q 123.41 433.50 124.55 434.46
  A 0.52 0.52 0.0 0 0 125.31 433.76"
/>
</g>
<path fill="#42dfdf" d="
  M 544.27 103.41
  Q 545.07 104.88 545.84 106.65
  A 1.74 1.74 0.0 0 1 545.03 108.90
  C 543.11 109.87 538.83 108.51 536.79 107.99
  Q 530.77 104.26 523.90 102.77
  C 519.87 101.89 516.62 102.11 511.15 101.94
  Q 503.10 101.69 448.30 101.61
  Q 433.70 101.59 409.24 102.03
  Q 389.73 102.39 370.20 102.64
  Q 356.47 102.37 342.75 102.85
  Q 332.34 103.21 322.46 106.46
  Q 316.33 107.97 311.30 111.65
  C 305.11 109.91 299.41 115.18 294.10 118.87
  Q 292.25 120.16 287.48 121.23
  A 1.13 1.11 4.6 0 0 286.70 121.88
  Q 286.48 122.37 286.29 122.39
  A 0.29 0.29 0.0 0 1 286.07 121.89
  C 292.43 116.17 297.45 112.62 299.46 107.60
  Q 313.44 98.15 329.64 94.89
  Q 338.05 93.20 356.48 93.14
  Q 464.80 92.80 513.75 93.08
  Q 519.25 93.11 528.13 95.66
  Q 536.86 98.17 544.27 103.41
  Z"
/>
<path fill="#67ecea" d="
  M 536.79 107.99
  Q 542.81 112.80 543.86 114.65
  Q 550.05 125.50 549.64 137.03
  Q 549.09 152.63 548.56 164.42
  Q 548.46 166.67 548.27 168.22
  C 547.38 175.18 548.04 182.29 547.77 185.81
  Q 547.07 194.89 546.54 208.09
  A 0.03 0.02 90.0 0 1 546.52 208.12
  L 545.75 208.17
  A 0.18 0.18 0.0 0 1 545.56 207.98
  C 545.96 202.57 546.32 197.44 546.32 192.32
  Q 546.32 185.67 546.69 181.59
  Q 547.28 175.18 547.17 170.88
  Q 547.05 166.13 547.71 158.46
  C 548.43 150.21 548.16 144.49 548.26 134.59
  C 548.34 126.46 544.89 117.65 538.85 112.12
  A 3.88 3.86 80.2 0 0 538.06 111.56
  Q 535.61 110.26 535.71 111.74
  Q 530.70 108.13 524.79 105.83
  C 520.11 104.01 516.39 102.76 511.75 102.76
  C 467.20 102.77 418.74 103.45 370.20 102.64
  Q 389.73 102.39 409.24 102.03
  Q 433.70 101.59 448.30 101.61
  Q 503.10 101.69 511.15 101.94
  C 516.62 102.11 519.87 101.89 523.90 102.77
  Q 530.77 104.26 536.79 107.99
  Z"
/>
<path fill="#a4f8f4" d="
  M 370.20 102.64
  C 418.74 103.45 467.20 102.77 511.75 102.76
  C 516.39 102.76 520.11 104.01 524.79 105.83
  Q 530.70 108.13 535.71 111.74
  Q 539.59 114.28 542.40 118.22
  Q 542.36 118.72 541.98 118.98
  A 0.66 0.66 0.0 0 1 541.09 118.86
  C 533.65 109.75 520.78 107.01 509.25 107.03
  Q 442.16 107.12 400.25 107.03
  Q 376.67 106.97 352.01 107.49
  Q 335.44 107.83 321.62 114.26
  C 308.56 120.34 299.31 132.79 289.29 142.71
  C 273.21 158.64 251.55 181.24 227.55 205.04
  C 221.54 211.00 214.24 219.69 206.12 225.33
  Q 200.44 229.27 192.74 231.40
  C 190.24 232.09 186.21 232.22 184.03 232.34
  Q 178.13 232.65 177.48 232.64
  Q 145.78 232.51 135.93 232.72
  C 131.74 232.81 125.86 233.16 122.40 234.50
  C 117.81 236.29 113.28 238.97 112.48 243.51
  C 111.34 249.89 112.38 257.25 117.73 262.09
  A 0.36 0.36 0.0 0 1 117.49 262.71
  L 116.64 262.71
  A 3.07 3.05 66.2 0 1 114.57 261.90
  Q 110.68 258.33 109.35 252.60
  Q 106.95 242.31 113.94 234.89
  C 118.04 230.53 123.99 229.39 129.66 229.26
  Q 141.37 228.98 155.72 229.14
  C 164.12 229.23 174.53 228.75 181.22 228.50
  Q 193.76 228.04 205.34 220.11
  C 215.36 213.24 225.07 202.31 231.77 196.51
  Q 233.38 195.12 243.17 184.91
  Q 249.98 177.81 254.53 173.28
  Q 272.63 155.26 289.08 138.43
  C 294.13 133.27 298.86 126.93 303.49 122.49
  Q 308.60 117.58 310.21 116.46
  Q 321.57 108.62 321.64 108.56
  A 0.36 0.36 0.0 0 0 321.57 107.97
  Q 321.27 107.80 321.32 107.46
  A 0.39 0.39 0.0 0 1 321.48 107.19
  L 322.46 106.46
  Q 332.34 103.21 342.75 102.85
  Q 356.47 102.37 370.20 102.64
  Z"
/>
<path fill="#2ad5d8" d="
  M 552.33 110.97
  Q 553.48 113.26 554.60 115.53
  C 558.08 122.57 559.16 131.45 558.83 139.12
  Q 558.81 139.50 558.58 140.00
  A 0.23 0.23 0.0 0 1 558.15 139.97
  L 557.61 138.20
  A 1.65 1.46 -55.4 0 1 557.55 137.70
  Q 557.68 134.41 557.04 131.66
  A 0.34 0.33 41.3 0 0 556.38 131.70
  Q 555.96 136.13 555.87 139.98
  Q 555.86 140.22 555.63 140.69
  Q 555.44 141.11 555.42 141.41
  Q 554.56 160.84 553.49 180.30
  L 549.35 269.92
  L 543.15 275.16
  A 0.20 0.20 0.0 0 0 543.10 275.39
  Q 543.22 275.62 543.15 275.72
  A 0.29 0.28 -32.5 0 1 542.63 275.61
  C 541.90 270.40 542.37 265.08 540.96 259.99
  Q 541.38 250.06 542.03 240.00
  Q 542.50 232.88 543.01 221.50
  Q 544.75 183.12 546.62 144.75
  C 547.08 135.15 547.39 126.05 542.40 118.22
  Q 539.59 114.28 535.71 111.74
  Q 535.61 110.26 538.06 111.56
  A 3.88 3.86 80.2 0 1 538.85 112.12
  C 544.89 117.65 548.34 126.46 548.26 134.59
  C 548.16 144.49 548.43 150.21 547.71 158.46
  Q 547.05 166.13 547.17 170.88
  Q 547.28 175.18 546.69 181.59
  Q 546.32 185.67 546.32 192.32
  C 546.32 197.44 545.96 202.57 545.56 207.98
  A 0.18 0.18 0.0 0 0 545.75 208.17
  L 546.52 208.12
  A 0.03 0.02 -90.0 0 0 546.54 208.09
  Q 547.07 194.89 547.77 185.81
  C 548.04 182.29 547.38 175.18 548.27 168.22
  Q 548.46 166.67 548.56 164.42
  Q 549.09 152.63 549.64 137.03
  Q 550.05 125.50 543.86 114.65
  Q 542.81 112.80 536.79 107.99
  C 538.83 108.51 543.11 109.87 545.03 108.90
  A 1.74 1.74 0.0 0 0 545.84 106.65
  Q 545.07 104.88 544.27 103.41
  L 552.33 110.97
  Z"
/>
<path fill="#67ecea" d="
  M 322.46 106.46
  L 321.48 107.19
  A 0.39 0.39 0.0 0 0 321.32 107.46
  Q 321.27 107.80 321.57 107.97
  A 0.36 0.36 0.0 0 1 321.64 108.56
  Q 321.57 108.62 310.21 116.46
  Q 308.60 117.58 303.49 122.49
  C 298.86 126.93 294.13 133.27 289.08 138.43
  Q 272.63 155.26 254.53 173.28
  Q 249.98 177.81 243.17 184.91
  Q 233.38 195.12 231.77 196.51
  C 225.07 202.31 215.36 213.24 205.34 220.11
  Q 193.76 228.04 181.22 228.50
  C 174.53 228.75 164.12 229.23 155.72 229.14
  Q 141.37 228.98 129.66 229.26
  C 123.99 229.39 118.04 230.53 113.94 234.89
  Q 106.95 242.31 109.35 252.60
  Q 110.68 258.33 114.57 261.90
  A 3.07 3.05 66.2 0 0 116.64 262.71
  L 117.49 262.71
  A 0.36 0.36 0.0 0 0 117.73 262.09
  C 112.38 257.25 111.34 249.89 112.48 243.51
  C 113.28 238.97 117.81 236.29 122.40 234.50
  C 125.86 233.16 131.74 232.81 135.93 232.72
  Q 145.78 232.51 177.48 232.64
  Q 178.13 232.65 184.03 232.34
  C 186.21 232.22 190.24 232.09 192.74 231.40
  Q 200.44 229.27 206.12 225.33
  C 214.24 219.69 221.54 211.00 227.55 205.04
  C 251.55 181.24 273.21 158.64 289.29 142.71
  C 299.31 132.79 308.56 120.34 321.62 114.26
  Q 335.44 107.83 352.01 107.49
  Q 376.67 106.97 400.25 107.03
  Q 442.16 107.12 509.25 107.03
  C 520.78 107.01 533.65 109.75 541.09 118.86
  A 0.66 0.66 0.0 0 0 541.98 118.98
  Q 542.36 118.72 542.40 118.22
  C 547.39 126.05 547.08 135.15 546.62 144.75
  Q 544.75 183.12 543.01 221.50
  Q 542.50 232.88 542.03 240.00
  Q 541.38 250.06 540.96 259.99
  L 540.97 264.18
  Q 540.55 265.56 540.34 265.71
  A 0.88 0.87 -18.2 0 1 538.95 265.01
  L 538.80 242.90
  A 0.95 0.93 -71.7 0 0 538.43 242.15
  C 531.90 237.25 526.73 235.17 518.52 237.68
  C 509.33 240.49 500.52 244.84 492.02 248.43
  Q 476.27 255.08 455.72 259.12
  Q 409.80 268.15 396.36 270.90
  Q 389.37 272.33 382.36 272.70
  Q 360.07 273.88 348.36 274.84
  Q 339.84 275.55 334.87 282.56
  Q 334.19 283.52 334.23 284.44
  Q 334.27 285.40 334.63 286.48
  Q 333.46 286.19 333.50 286.75
  Q 333.91 293.32 333.30 301.05
  A 4.15 4.13 65.1 0 1 332.55 303.12
  Q 331.71 304.30 330.35 308.03
  Q 329.91 309.23 326.28 314.82
  C 324.21 318.02 320.97 320.83 317.95 322.43
  Q 314.66 324.18 313.62 325.03
  A 2.11 1.96 -68.5 0 1 312.83 325.41
  Q 304.06 327.51 297.25 327.52
  Q 279.74 327.57 268.43 327.77
  C 237.46 328.32 206.35 328.03 175.57 328.41
  C 130.17 328.97 95.28 328.65 55.30 329.21
  Q 43.11 329.37 39.74 330.03
  Q 34.37 331.07 30.30 336.02
  Q 24.59 342.95 27.28 350.70
  C 25.05 345.56 25.51 341.02 25.45 334.09
  Q 29.32 329.82 35.55 327.69
  Q 43.56 325.67 49.75 325.67
  C 131.50 325.58 212.32 324.84 297.40 324.72
  C 308.14 324.71 317.45 322.59 324.14 313.64
  Q 330.32 305.36 331.04 294.21
  C 331.69 284.03 329.64 276.21 320.71 270.46
  Q 313.61 265.89 303.25 265.93
  C 218.05 266.28 168.60 266.26 124.63 266.89
  C 114.02 267.04 105.29 261.76 103.83 250.65
  Q 102.97 245.03 105.36 239.49
  C 109.94 229.48 119.59 225.82 130.26 225.77
  Q 172.25 225.54 174.51 225.46
  Q 184.92 225.11 190.24 223.70
  C 200.31 221.02 208.28 214.08 215.43 206.68
  Q 229.76 191.86 244.17 177.66
  Q 261.42 160.65 282.81 138.47
  C 288.43 132.65 295.58 125.75 301.61 119.61
  Q 304.51 116.64 311.30 111.65
  Q 316.33 107.97 322.46 106.46
  Z
  M 427.29 197.63
  Q 427.96 202.67 429.34 207.51
  Q 429.63 208.54 430.35 208.94
  A 0.41 0.38 4.1 0 1 430.50 209.10
  L 434.01 215.54
  A 1.36 1.34 -12.6 0 0 435.13 216.24
  L 438.76 216.41
  Q 438.88 216.74 438.98 216.64
  Q 437.96 217.78 436.53 217.71
  Q 436.50 216.91 436.12 216.71
  A 0.32 0.32 0.0 0 0 435.72 217.19
  L 436.25 217.83
  L 438.25 219.91
  A 0.59 0.56 26.7 0 1 438.41 220.35
  Q 438.30 221.38 439.90 221.60
  A 0.89 0.85 -22.2 0 1 440.28 221.75
  L 447.36 226.70
  L 451.84 231.24
  A 6.68 6.59 -12.9 0 0 454.48 232.87
  Q 466.03 236.64 477.08 233.93
  Q 499.27 228.48 507.65 208.04
  C 511.92 197.63 511.73 188.02 509.00 177.66
  Q 508.69 176.49 507.77 175.22
  A 0.39 0.39 0.0 0 0 507.07 175.45
  Q 507.06 177.32 507.95 179.40
  A 4.70 4.55 28.1 0 1 508.20 180.18
  Q 510.36 190.53 507.24 201.70
  Q 505.11 209.35 500.45 214.69
  Q 495.12 220.80 489.62 224.91
  C 482.26 230.40 471.81 231.77 462.71 230.81
  Q 470.22 231.17 477.17 228.96
  Q 495.49 221.97 503.15 205.04
  Q 506.33 194.94 505.73 185.07
  C 505.47 180.76 504.00 177.39 502.79 173.44
  A 4.01 3.69 23.0 0 0 502.35 172.47
  Q 500.86 170.12 500.84 169.98
  A 1.07 1.06 11.2 0 0 500.26 169.12
  Q 499.42 168.69 497.36 165.29
  A 0.17 0.17 0.0 0 1 497.42 165.05
  L 497.42 165.04
  A 0.15 0.14 59.7 0 1 497.59 165.09
  L 500.26 168.49
  A 0.09 0.09 0.0 0 0 500.42 168.43
  Q 500.42 168.42 500.25 168.20
  Q 497.39 164.30 495.62 162.58
  A 1.71 1.67 72.3 0 0 494.83 162.16
  Q 492.51 161.68 491.17 159.57
  Q 490.66 158.76 488.19 158.29
  C 469.93 149.65 448.41 154.56 435.78 169.78
  Q 428.13 178.99 427.51 191.75
  Q 427.37 194.80 427.29 197.63
  Z"
/>
<path fill="#2ad5d8" d="
  M 299.46 107.60
  C 297.45 112.62 292.43 116.17 286.07 121.89
  A 0.29 0.29 0.0 0 0 286.29 122.39
  Q 286.48 122.37 286.70 121.88
  A 1.13 1.11 4.6 0 1 287.48 121.23
  Q 292.25 120.16 294.10 118.87
  C 299.41 115.18 305.11 109.91 311.30 111.65
  Q 304.51 116.64 301.61 119.61
  C 295.58 125.75 288.43 132.65 282.81 138.47
  Q 261.42 160.65 244.17 177.66
  Q 229.76 191.86 215.43 206.68
  C 208.28 214.08 200.31 221.02 190.24 223.70
  Q 184.92 225.11 174.51 225.46
  Q 172.25 225.54 130.26 225.77
  C 119.59 225.82 109.94 229.48 105.36 239.49
  C 102.41 242.01 99.27 245.40 94.96 244.45
  C 96.83 226.83 113.07 216.99 129.78 216.77
  Q 170.06 216.24 174.76 216.33
  Q 183.65 216.51 191.78 212.50
  C 195.49 210.67 200.07 206.36 203.16 203.18
  Q 243.68 161.61 287.80 117.55
  Q 293.21 112.15 299.46 107.60
  Z"
/>
<path fill="#009ca2" d="
  M 590.74 179.27
  L 589.51 200.29
  L 589.21 201.05
  C 588.38 183.50 586.69 167.03 574.57 153.73
  C 570.59 149.35 564.42 144.70 559.48 139.87
  A 0.28 0.28 0.0 0 0 559.00 140.06
  L 552.04 294.29
  L 550.38 317.72
  C 549.84 318.38 549.44 319.13 549.37 319.88
  Q 549.37 319.75 549.37 319.65
  Q 549.64 303.51 550.27 291.70
  C 551.43 269.64 551.83 249.36 553.60 226.67
  C 554.59 214.04 554.31 201.31 555.03 188.68
  Q 555.37 182.76 555.08 176.05
  A 0.14 0.14 0.0 0 0 554.80 176.01
  L 553.49 180.30
  Q 554.56 160.84 555.42 141.41
  Q 555.44 141.11 555.63 140.69
  Q 555.86 140.22 555.87 139.98
  Q 555.96 136.13 556.38 131.70
  A 0.34 0.33 41.3 0 1 557.04 131.66
  Q 557.68 134.41 557.55 137.70
  A 1.65 1.46 -55.4 0 0 557.61 138.20
  L 558.15 139.97
  A 0.23 0.23 0.0 0 0 558.58 140.00
  Q 558.81 139.50 558.83 139.12
  C 559.16 131.45 558.08 122.57 554.60 115.53
  Q 553.48 113.26 552.33 110.97
  Q 567.87 128.50 581.45 147.55
  Q 591.53 161.69 590.74 179.27
  Z"
/>
<path fill="#006e8a" d="
  M 589.21 201.05
  Q 589.10 209.15 588.32 217.23
  C 587.93 221.23 588.14 225.05 587.74 228.34
  Q 587.14 233.24 587.06 236.68
  Q 586.92 242.25 585.79 258.56
  C 583.75 287.79 582.19 320.33 580.66 338.48
  Q 579.01 358.17 565.23 373.21
  Q 558.87 359.71 555.44 345.36
  C 551.51 328.92 552.23 311.08 552.04 294.29
  L 559.00 140.06
  A 0.28 0.28 0.0 0 1 559.48 139.87
  C 564.42 144.70 570.59 149.35 574.57 153.73
  C 586.69 167.03 588.38 183.50 589.21 201.05
  Z"
/>
<path fill="#009ca2" d="
  M 488.19 158.29
  Q 490.66 159.59 491.09 161.47
  A 0.64 0.64 0.0 0 1 490.23 162.21
  L 485.14 160.19
  A 0.27 0.27 0.0 0 0 484.85 160.26
  L 484.84 160.28
  A 0.26 0.26 0.0 0 0 484.94 160.63
  Q 489.15 163.05 492.25 166.81
  C 482.89 158.89 469.82 157.81 457.98 161.02
  Q 445.97 164.28 439.47 173.52
  Q 435.07 179.78 433.58 184.61
  Q 431.30 192.00 431.99 201.97
  A 0.19 0.19 0.0 0 1 431.74 202.16
  L 431.43 202.03
  A 0.14 0.13 7.6 0 1 431.34 201.92
  L 430.74 198.91
  Q 430.35 197.58 430.71 197.12
  Q 431.26 196.40 431.27 196.34
  Q 431.62 193.85 430.73 191.26
  Q 431.21 189.13 431.43 187.01
  Q 431.44 186.93 431.43 186.90
  A 0.11 0.02 -73.8 0 0 431.36 187.03
  Q 430.96 189.11 430.73 191.26
  L 430.13 202.20
  L 429.39 204.96
  L 427.29 197.63
  Q 427.37 194.80 427.51 191.75
  Q 428.13 178.99 435.78 169.78
  C 448.41 154.56 469.93 149.65 488.19 158.29
  Z"
/>
<path fill="#01b5c2" d="
  M 503.15 205.04
  Q 499.98 204.66 496.74 205.34
  L 499.47 198.83
  Q 501.06 192.85 500.33 187.06
  C 501.14 178.61 497.77 172.68 492.25 166.81
  Q 489.15 163.05 484.94 160.63
  A 0.26 0.26 0.0 0 1 484.84 160.28
  L 484.85 160.26
  A 0.27 0.27 0.0 0 1 485.14 160.19
  L 490.23 162.21
  A 0.64 0.64 0.0 0 0 491.09 161.47
  Q 490.66 159.59 488.19 158.29
  Q 490.66 158.76 491.17 159.57
  Q 492.51 161.68 494.83 162.16
  A 1.71 1.67 72.3 0 1 495.62 162.58
  Q 497.39 164.30 500.25 168.20
  Q 500.42 168.42 500.42 168.43
  A 0.09 0.09 0.0 0 1 500.26 168.49
  L 497.59 165.09
  A 0.15 0.14 59.7 0 0 497.42 165.04
  L 497.42 165.05
  A 0.17 0.17 0.0 0 0 497.36 165.29
  Q 499.42 168.69 500.26 169.12
  A 1.07 1.06 11.2 0 1 500.84 169.98
  Q 500.86 170.12 502.35 172.47
  A 4.01 3.69 23.0 0 1 502.79 173.44
  C 504.00 177.39 505.47 180.76 505.73 185.07
  Q 506.33 194.94 503.15 205.04
  Z"
/>
<path fill="#005972" d="
  M 492.25 166.81
  C 497.77 172.68 501.14 178.61 500.33 187.06
  Q 500.87 184.08 498.52 183.95
  Q 491.49 183.58 483.05 186.09
  Q 466.30 191.08 457.95 206.47
  Q 453.36 214.94 453.65 224.51
  Q 453.68 225.46 454.97 225.67
  L 454.44 225.77
  A 1.94 1.86 46.2 0 1 453.50 225.73
  Q 445.03 223.23 438.98 216.64
  Q 438.88 216.74 438.76 216.41
  L 437.55 214.97
  Q 433.50 209.25 431.68 202.29
  A 0.42 0.41 74.9 0 0 431.18 202.00
  L 430.79 202.09
  A 0.46 0.46 0.0 0 0 430.46 202.68
  Q 431.05 204.55 430.91 206.57
  L 429.39 204.96
  L 430.13 202.20
  L 430.74 198.91
  L 431.34 201.92
  A 0.14 0.13 7.6 0 0 431.43 202.03
  L 431.74 202.16
  A 0.19 0.19 0.0 0 0 431.99 201.97
  Q 431.30 192.00 433.58 184.61
  Q 435.07 179.78 439.47 173.52
  Q 445.97 164.28 457.98 161.02
  C 469.82 157.81 482.89 158.89 492.25 166.81
  Z"
/>
<path fill="#143f4e" fill-opacity="0.051" d="
  M 483.07 489.97
  C 494.34 475.79 506.10 463.12 519.91 450.57
  C 532.82 438.83 544.99 426.96 556.70 413.99
  Q 569.17 400.18 578.01 384.32
  Q 582.50 376.27 584.68 367.10
  Q 589.09 348.50 590.60 330.50
  Q 593.36 297.58 593.37 270.61
  Q 593.38 255.21 593.73 251.58
  C 595.56 232.77 597.92 215.21 595.71 197.35
  Q 595.24 193.51 594.06 191.33
  A 0.97 0.96 -32.1 0 0 592.66 191.01
  Q 592.11 191.40 591.71 192.49
  Q 590.31 196.31 589.51 200.29
  L 590.74 179.27
  Q 595.43 177.89 597.61 182.88
  Q 599.60 187.40 600.38 191.35
  Q 604.08 210.06 603.14 229.75
  Q 601.72 259.43 599.74 287.73
  C 598.00 312.59 597.28 329.86 595.92 350.65
  C 594.72 369.09 589.27 388.67 579.09 403.11
  Q 571.23 414.24 559.63 425.03
  C 552.55 431.62 543.25 436.89 534.94 442.37
  Q 518.82 453.00 504.18 468.20
  Q 493.67 479.12 483.07 489.97
  Z"
/>
<path fill="#a4f8f4" d="
  M 447.36 226.70
  L 449.73 227.32
  Q 449.25 227.03 449.02 227.23
  Q 448.76 227.44 449.03 227.67
  Q 449.20 227.83 449.53 227.90
  Q 455.73 230.80 462.71 230.81
  C 471.81 231.77 482.26 230.40 489.62 224.91
  Q 495.12 220.80 500.45 214.69
  Q 505.11 209.35 507.24 201.70
  Q 510.36 190.53 508.20 180.18
  A 4.70 4.55 28.1 0 0 507.95 179.40
  Q 507.06 177.32 507.07 175.45
  A 0.39 0.39 0.0 0 1 507.77 175.22
  Q 508.69 176.49 509.00 177.66
  C 511.73 188.02 511.92 197.63 507.65 208.04
  Q 499.27 228.48 477.08 233.93
  Q 466.03 236.64 454.48 232.87
  A 6.68 6.59 -12.9 0 1 451.84 231.24
  L 447.36 226.70
  Z"
/>
<path fill="#006e8a" d="
  M 550.38 317.72
  Q 549.45 326.91 544.61 334.66
  C 536.07 343.57 527.82 352.71 519.09 361.41
  Q 513.55 366.93 509.60 371.40
  C 499.70 382.58 488.39 392.56 477.79 404.28
  C 473.12 409.44 468.71 413.42 464.28 418.45
  Q 462.43 420.55 459.57 423.39
  C 442.52 440.32 433.29 449.25 418.60 464.42
  Q 403.72 479.79 392.93 490.26
  C 388.42 494.62 384.64 499.65 380.05 504.04
  C 372.00 511.75 363.86 520.07 354.95 526.02
  C 358.10 523.03 361.88 520.10 364.61 517.24
  Q 370.06 511.51 372.00 509.70
  C 378.77 503.38 383.74 497.47 390.79 490.71
  Q 397.19 484.59 402.27 479.35
  C 414.80 466.43 438.49 443.78 456.04 424.37
  C 460.96 418.92 466.42 414.33 470.76 409.76
  Q 480.03 399.98 491.90 388.08
  C 500.12 379.84 504.88 374.57 513.87 365.36
  Q 514.79 364.41 522.44 356.93
  Q 532.63 346.96 540.46 334.96
  Q 543.32 330.59 545.17 325.70
  Q 546.06 323.60 546.39 321.22
  Q 547.52 313.15 547.93 305.01
  Q 548.80 287.52 549.35 269.92
  L 553.49 180.30
  L 554.80 176.01
  A 0.14 0.14 0.0 0 1 555.08 176.05
  Q 555.37 182.76 555.03 188.68
  C 554.31 201.31 554.59 214.04 553.60 226.67
  C 551.83 249.36 551.43 269.64 550.27 291.70
  Q 549.64 303.51 549.37 319.65
  Q 549.37 319.75 549.37 319.88
  C 549.44 319.13 549.84 318.38 550.38 317.72
  Z"
/>
<path fill="#0a4658" fill-opacity="0.153" d="
  M 483.07 489.97
  Q 475.41 496.40 469.84 502.52
  Q 453.10 520.91 428.28 549.92
  Q 417.47 562.57 403.97 572.00
  C 385.88 584.62 362.62 587.22 343.33 575.38
  C 339.53 573.04 335.43 569.30 339.48 564.89
  Q 351.39 567.12 361.97 564.88
  Q 379.75 561.13 394.06 548.04
  Q 401.55 541.19 408.65 534.04
  Q 408.52 539.85 406.00 545.32
  A 0.34 0.34 0.0 0 0 406.35 545.80
  Q 410.15 545.39 413.65 543.34
  C 419.74 539.78 423.90 537.43 428.49 532.04
  Q 438.74 520.00 448.51 509.37
  C 451.94 505.63 455.58 503.11 459.12 499.51
  Q 461.11 497.47 478.96 480.94
  C 483.28 476.93 486.28 472.42 490.48 468.16
  Q 506.47 451.92 512.97 445.62
  Q 518.22 440.53 519.70 438.57
  C 524.07 432.75 527.06 429.32 528.90 423.70
  A 0.41 0.41 0.0 0 0 528.34 423.19
  Q 526.03 424.21 517.56 428.54
  C 512.67 431.04 509.49 434.10 506.08 437.83
  Q 497.01 447.74 483.50 460.49
  Q 476.15 467.42 468.92 474.43
  Q 467.13 476.17 465.21 477.80
  L 465.54 477.13
  A 0.86 0.73 85.3 0 1 465.69 476.92
  Q 503.93 439.41 540.92 400.66
  Q 546.23 395.10 565.23 373.21
  Q 579.01 358.17 580.66 338.48
  C 582.19 320.33 583.75 287.79 585.79 258.56
  Q 586.92 242.25 587.06 236.68
  Q 587.14 233.24 587.74 228.34
  C 588.14 225.05 587.93 221.23 588.32 217.23
  Q 589.10 209.15 589.21 201.05
  L 589.51 200.29
  Q 590.31 196.31 591.71 192.49
  Q 592.11 191.40 592.66 191.01
  A 0.97 0.96 -32.1 0 1 594.06 191.33
  Q 595.24 193.51 595.71 197.35
  C 597.92 215.21 595.56 232.77 593.73 251.58
  Q 593.38 255.21 593.37 270.61
  Q 593.36 297.58 590.60 330.50
  Q 589.09 348.50 584.68 367.10
  Q 582.50 376.27 578.01 384.32
  Q 569.17 400.18 556.70 413.99
  C 544.99 426.96 532.82 438.83 519.91 450.57
  C 506.10 463.12 494.34 475.79 483.07 489.97
  Z"
/>
<path fill="#006e8a" d="
  M 430.73 191.26
  Q 430.96 189.11 431.36 187.03
  A 0.11 0.02 -73.8 0 1 431.43 186.90
  Q 431.44 186.93 431.43 187.01
  Q 431.21 189.13 430.73 191.26
  Z"
/>
<path fill="#0a4658" fill-opacity="0.153" d="
  M 500.33 187.06
  Q 501.06 192.85 499.47 198.83
  Q 482.09 198.49 470.48 210.40
  C 467.61 213.34 465.17 217.58 462.67 221.21
  Q 461.30 223.20 457.16 226.02
  L 454.97 225.67
  Q 453.68 225.46 453.65 224.51
  Q 453.36 214.94 457.95 206.47
  Q 466.30 191.08 483.05 186.09
  Q 491.49 183.58 498.52 183.95
  Q 500.87 184.08 500.33 187.06
  Z"
/>
<path fill="#006e8a" d="
  M 430.73 191.26
  Q 431.62 193.85 431.27 196.34
  Q 431.26 196.40 430.71 197.12
  Q 430.35 197.58 430.74 198.91
  L 430.13 202.20
  L 430.73 191.26
  Z"
/>
<path fill="#2ad5d8" d="
  M 429.39 204.96
  L 430.91 206.57
  L 431.20 206.07
  A 0.23 0.23 0.0 0 1 431.62 206.12
  Q 431.76 206.61 431.85 208.77
  A 0.13 0.13 0.0 0 1 431.72 208.91
  L 431.45 208.91
  A 0.19 0.18 84.2 0 1 431.27 208.76
  Q 431.03 207.27 430.18 206.84
  A 0.21 0.21 0.0 0 0 429.91 207.13
  L 433.92 214.08
  A 1.18 1.16 -11.2 0 0 434.80 214.66
  L 437.55 214.97
  L 438.76 216.41
  L 435.13 216.24
  A 1.36 1.34 -12.6 0 1 434.01 215.54
  L 430.50 209.10
  A 0.41 0.38 4.1 0 0 430.35 208.94
  Q 429.63 208.54 429.34 207.51
  Q 427.96 202.67 427.29 197.63
  L 429.39 204.96
  Z"
/>
<path fill="#01b5c2" d="
  M 437.55 214.97
  L 434.80 214.66
  A 1.18 1.16 -11.2 0 1 433.92 214.08
  L 429.91 207.13
  A 0.21 0.21 0.0 0 1 430.18 206.84
  Q 431.03 207.27 431.27 208.76
  A 0.19 0.18 84.2 0 0 431.45 208.91
  L 431.72 208.91
  A 0.13 0.13 0.0 0 0 431.85 208.77
  Q 431.76 206.61 431.62 206.12
  A 0.23 0.23 0.0 0 0 431.20 206.07
  L 430.91 206.57
  Q 431.05 204.55 430.46 202.68
  A 0.46 0.46 0.0 0 1 430.79 202.09
  L 431.18 202.00
  A 0.42 0.41 74.9 0 1 431.68 202.29
  Q 433.50 209.25 437.55 214.97
  Z"
/>
<path fill="#2ad5d8" d="
  M 503.15 205.04
  Q 495.49 221.97 477.17 228.96
  Q 463.12 230.39 449.73 227.32
  L 447.36 226.70
  L 440.28 221.75
  A 0.89 0.85 -22.2 0 0 439.90 221.60
  Q 438.30 221.38 438.41 220.35
  A 0.59 0.56 26.7 0 0 438.25 219.91
  L 436.25 217.83
  Q 436.39 217.77 436.53 217.71
  Q 437.96 217.78 438.98 216.64
  Q 445.03 223.23 453.50 225.73
  A 1.94 1.86 46.2 0 0 454.44 225.77
  L 454.97 225.67
  L 457.16 226.02
  Q 464.14 226.90 469.81 225.57
  Q 487.69 221.38 496.74 205.34
  Q 499.98 204.66 503.15 205.04
  Z"
/>
<path fill="#42dfdf" d="
  M 436.53 217.71
  Q 436.39 217.77 436.25 217.83
  L 435.72 217.19
  A 0.32 0.32 0.0 0 1 436.12 216.71
  Q 436.50 216.91 436.53 217.71
  Z"
/>
<path fill="#67ecea" d="
  M 449.73 227.32
  Q 449.62 227.45 449.53 227.90
  Q 449.20 227.83 449.03 227.67
  Q 448.76 227.44 449.02 227.23
  Q 449.25 227.03 449.73 227.32
  Z"
/>
<path fill="#42dfdf" d="
  M 477.17 228.96
  Q 470.22 231.17 462.71 230.81
  Q 455.73 230.80 449.53 227.90
  Q 449.62 227.45 449.73 227.32
  Q 463.12 230.39 477.17 228.96
  Z
  M 457.2369 229.7780
  A 1.51 0.27 -167.3 0 0 458.6506 230.3734
  A 1.51 0.27 -167.3 0 0 460.1831 230.4420
  A 1.51 0.27 -167.3 0 0 458.7694 229.8466
  A 1.51 0.27 -167.3 0 0 457.2369 229.7780
  Z"
/>
<ellipse fill="#67ecea" cx="0.00" cy="0.00" transform="translate(458.71,230.11) rotate(-167.3)" rx="1.51" ry="0.27"/>
<path fill="#42dfdf" d="
  M 540.97 264.18
  Q 539.97 288.25 539.05 312.25
  C 538.73 320.69 535.43 329.53 529.85 336.26
  Q 528.00 338.49 526.43 340.67
  Q 512.99 348.35 500.87 349.76
  Q 464.39 354.01 439.69 360.77
  C 429.12 363.66 418.11 367.94 405.48 370.89
  C 388.28 374.90 369.97 380.78 352.20 383.94
  Q 335.18 386.97 299.19 392.72
  C 284.05 395.14 271.52 397.97 256.61 401.05
  A 0.36 0.36 0.0 0 1 256.18 400.66
  Q 256.90 393.99 254.55 388.95
  L 252.09 381.16
  A 0.46 0.46 0.0 0 0 251.19 381.29
  C 251.13 384.21 251.92 387.16 251.97 389.95
  Q 252.26 406.07 240.93 417.51
  L 232.95 420.96
  A 0.15 0.15 0.0 0 1 232.76 420.88
  A 0.15 0.14 -28.5 0 1 232.82 420.69
  C 241.03 415.98 246.11 407.75 248.51 398.49
  Q 250.39 386.29 245.84 375.06
  A 3.75 3.71 16.1 0 0 245.37 374.22
  C 238.71 365.25 229.54 362.65 218.62 362.61
  Q 202.73 362.54 132.77 363.06
  C 109.50 363.23 100.13 363.19 83.38 363.38
  Q 70.08 363.53 64.57 363.25
  C 57.21 362.87 49.62 363.92 42.74 363.07
  Q 39.61 362.69 38.20 362.69
  C 31.39 362.70 25.52 359.96 23.08 353.21
  Q 21.47 349.47 21.48 345.20
  Q 21.69 339.35 25.45 334.09
  C 25.51 341.02 25.05 345.56 27.28 350.70
  Q 28.62 354.65 31.43 357.92
  A 0.64 0.63 -36.2 0 0 32.24 358.04
  L 32.25 358.03
  A 0.47 0.45 -34.6 0 0 32.38 357.37
  Q 26.28 349.08 30.67 339.66
  A 2.74 2.68 81.2 0 1 31.27 338.82
  Q 33.76 336.47 34.43 336.14
  Q 41.05 332.91 49.50 332.84
  Q 103.10 332.41 134.33 332.42
  C 189.69 332.44 242.23 331.41 299.00 331.11
  C 313.44 331.04 330.38 323.35 334.22 307.98
  Q 336.88 297.28 334.63 286.48
  Q 334.27 285.40 334.23 284.44
  Q 334.19 283.52 334.87 282.56
  Q 339.84 275.55 348.36 274.84
  Q 360.07 273.88 382.36 272.70
  Q 389.37 272.33 396.36 270.90
  Q 409.80 268.15 455.72 259.12
  Q 476.27 255.08 492.02 248.43
  C 500.52 244.84 509.33 240.49 518.52 237.68
  C 526.73 235.17 531.90 237.25 538.43 242.15
  A 0.95 0.93 -71.7 0 1 538.80 242.90
  L 538.95 265.01
  A 0.88 0.87 -18.2 0 0 540.34 265.71
  Q 540.55 265.56 540.97 264.18
  Z"
/>
<path fill="#01b5c2" d="
  M 105.36 239.49
  Q 102.97 245.03 103.83 250.65
  Q 99.44 254.56 95.15 251.96
  L 94.96 244.45
  C 99.27 245.40 102.41 242.01 105.36 239.49
  Z"
/>
<path fill="#009ca2" d="
  M 103.83 250.65
  C 105.29 261.76 114.02 267.04 124.63 266.89
  C 168.60 266.26 218.05 266.28 303.25 265.93
  Q 313.61 265.89 320.71 270.46
  C 329.64 276.21 331.69 284.03 331.04 294.21
  Q 330.42 287.64 327.39 284.90
  Q 323.14 273.27 311.39 272.10
  Q 304.59 271.29 302.25 271.30
  Q 249.13 271.35 196.01 271.82
  C 182.87 271.94 163.99 272.62 147.96 272.52
  C 137.56 272.09 127.50 272.28 116.79 271.23
  Q 113.23 270.88 111.04 270.00
  C 107.11 268.41 105.30 267.62 102.05 263.92
  Q 100.38 262.01 98.30 260.54
  Q 96.02 256.76 95.15 251.96
  Q 99.44 254.56 103.83 250.65
  Z"
/>
<path fill="#01b5c2" d="
  M 549.35 269.92
  Q 548.80 287.52 547.93 305.01
  Q 547.52 313.15 546.39 321.22
  Q 546.06 323.60 545.17 325.70
  C 542.28 329.41 539.68 329.76 536.28 331.37
  A 9.64 9.60 6.2 0 0 532.79 334.16
  C 530.16 337.54 527.06 341.80 523.48 345.37
  Q 519.76 349.08 509.96 359.77
  C 500.55 370.04 490.18 380.45 479.85 391.76
  Q 474.52 397.59 466.20 405.77
  C 460.87 411.00 454.03 418.79 447.05 425.29
  C 439.55 432.26 431.99 441.25 427.31 445.06
  Q 422.36 449.09 413.11 458.85
  Q 407.06 465.24 396.47 474.30
  Q 428.67 441.32 461.12 408.62
  Q 466.16 403.54 475.27 393.77
  C 489.66 378.34 509.57 359.17 526.43 340.67
  Q 528.00 338.49 529.85 336.26
  C 535.43 329.53 538.73 320.69 539.05 312.25
  Q 539.97 288.25 540.97 264.18
  L 540.96 259.99
  C 542.37 265.08 541.90 270.40 542.63 275.61
  A 0.29 0.28 -32.5 0 0 543.15 275.72
  Q 543.22 275.62 543.10 275.39
  A 0.20 0.20 0.0 0 1 543.15 275.16
  L 549.35 269.92
  Z"
/>
<path fill="#005972" d="
  M 147.96 272.52
  Q 192.95 273.62 220.07 273.64
  Q 231.73 273.64 249.55 272.81
  C 269.02 271.89 283.98 271.77 301.63 272.25
  Q 306.38 272.38 311.39 272.10
  Q 323.14 273.27 327.39 284.90
  Q 330.09 295.45 324.75 301.95
  Q 324.25 301.56 323.54 301.57
  C 321.18 301.22 318.97 300.94 316.47 300.97
  Q 256.07 301.59 188.25 301.54
  Q 173.90 301.54 154.35 301.78
  Q 148.45 301.86 145.18 301.28
  Q 138.62 300.12 136.27 299.03
  Q 133.64 297.82 124.22 291.75
  Q 121.90 289.85 119.71 287.28
  Q 110.42 276.32 101.14 265.36
  Q 99.91 263.90 98.30 260.54
  Q 100.38 262.01 102.05 263.92
  C 105.30 267.62 107.11 268.41 111.04 270.00
  Q 113.23 270.88 116.79 271.23
  C 127.50 272.28 137.56 272.09 147.96 272.52
  Z"
/>
<path fill="#126977" d="
  M 311.39 272.10
  Q 306.38 272.38 301.63 272.25
  C 283.98 271.77 269.02 271.89 249.55 272.81
  Q 231.73 273.64 220.07 273.64
  Q 192.95 273.62 147.96 272.52
  C 163.99 272.62 182.87 271.94 196.01 271.82
  Q 249.13 271.35 302.25 271.30
  Q 304.59 271.29 311.39 272.10
  Z"
/>
<path fill="#01b5c2" d="
  M 331.04 294.21
  Q 330.32 305.36 324.14 313.64
  C 317.45 322.59 308.14 324.71 297.40 324.72
  C 212.32 324.84 131.50 325.58 49.75 325.67
  Q 43.56 325.67 35.55 327.69
  Q 34.34 327.76 34.03 327.39
  A 0.58 0.38 -28.5 0 1 34.40 326.71
  Q 40.63 323.99 46.69 323.61
  Q 71.89 322.02 75.13 321.81
  Q 82.93 321.31 89.55 317.87
  A 2.15 2.08 30.0 0 1 90.47 317.64
  Q 92.78 317.62 93.51 317.65
  Q 93.71 317.66 93.51 317.55
  Q 91.93 316.72 91.53 316.69
  Q 88.72 316.50 85.95 316.00
  L 94.72 315.90
  L 96.29 315.88
  Q 96.39 315.87 96.48 315.87
  L 101.71 315.85
  L 146.44 315.58
  Q 221.23 315.43 296.15 315.10
  Q 307.32 315.05 311.66 313.47
  Q 320.02 310.43 324.75 301.95
  Q 330.09 295.45 327.39 284.90
  Q 330.42 287.64 331.04 294.21
  Z"
/>
<path fill="#a4f8f4" d="
  M 334.63 286.48
  Q 336.88 297.28 334.22 307.98
  C 330.38 323.35 313.44 331.04 299.00 331.11
  C 242.23 331.41 189.69 332.44 134.33 332.42
  Q 103.10 332.41 49.50 332.84
  Q 41.05 332.91 34.43 336.14
  Q 33.76 336.47 31.27 338.82
  A 2.74 2.68 81.2 0 0 30.67 339.66
  Q 26.28 349.08 32.38 357.37
  A 0.47 0.45 -34.6 0 1 32.25 358.03
  L 32.24 358.04
  A 0.64 0.63 -36.2 0 1 31.43 357.92
  Q 28.62 354.65 27.28 350.70
  Q 24.59 342.95 30.30 336.02
  Q 34.37 331.07 39.74 330.03
  Q 43.11 329.37 55.30 329.21
  C 95.28 328.65 130.17 328.97 175.57 328.41
  C 206.35 328.03 237.46 328.32 268.43 327.77
  Q 279.74 327.57 297.25 327.52
  Q 304.06 327.51 312.83 325.41
  A 2.11 1.96 -68.5 0 0 313.62 325.03
  Q 314.66 324.18 317.95 322.43
  C 320.97 320.83 324.21 318.02 326.28 314.82
  Q 329.91 309.23 330.35 308.03
  Q 331.71 304.30 332.55 303.12
  A 4.15 4.13 65.1 0 0 333.30 301.05
  Q 333.91 293.32 333.50 286.75
  Q 333.46 286.19 334.63 286.48
  Z"
/>
<path fill="#051d27" fill-opacity="0.969" d="
  M 323.54 301.57
  Q 322.41 301.90 321.25 301.92
  Q 265.38 303.04 209.50 302.82
  L 154.51 302.92
  Q 147.90 303.31 142.12 301.91
  Q 131.43 299.35 124.22 291.75
  Q 133.64 297.82 136.27 299.03
  Q 138.62 300.12 145.18 301.28
  Q 148.45 301.86 154.35 301.78
  Q 173.90 301.54 188.25 301.54
  Q 256.07 301.59 316.47 300.97
  C 318.97 300.94 321.18 301.22 323.54 301.57
  Z"
/>
<path fill="#005972" d="
  M 565.23 373.21
  Q 546.23 395.10 540.92 400.66
  Q 503.93 439.41 465.69 476.92
  A 0.86 0.73 85.3 0 0 465.54 477.13
  L 465.21 477.80
  L 408.65 534.04
  Q 401.55 541.19 394.06 548.04
  Q 379.75 561.13 361.97 564.88
  Q 351.39 567.12 339.48 564.89
  Q 332.37 563.36 326.31 560.16
  C 318.92 556.50 313.12 550.99 307.05 544.70
  Q 290.93 527.97 282.78 519.11
  Q 269.73 505.28 256.71 491.37
  C 255.73 490.32 254.99 488.94 253.30 488.93
  Q 245.38 488.89 227.40 488.93
  C 224.33 488.93 221.35 488.33 218.33 487.84
  Q 205.46 484.54 195.78 475.22
  Q 185.16 464.97 177.05 454.90
  Q 179.05 455.85 180.71 457.76
  A 3.88 3.81 82.1 0 0 181.97 458.73
  Q 185.26 460.33 188.87 462.64
  Q 190.14 463.44 196.72 465.28
  Q 200.47 466.33 204.89 466.41
  Q 219.32 466.66 224.79 467.23
  C 237.71 468.57 245.03 475.15 253.99 484.37
  A 1.29 0.99 74.3 0 0 254.27 484.58
  L 264.78 489.92
  A 0.09 0.03 16.8 0 1 264.81 489.94
  Q 280.72 506.20 297.78 522.83
  Q 299.10 524.11 301.40 526.09
  Q 303.26 527.70 305.08 529.42
  Q 319.75 541.68 338.79 537.70
  C 347.86 535.81 356.08 531.37 362.94 525.42
  Q 370.93 518.47 382.05 507.05
  Q 425.72 462.18 455.21 432.46
  C 466.05 421.52 486.14 399.03 500.78 385.03
  Q 509.13 377.05 515.92 369.43
  C 525.75 358.40 537.66 348.03 544.61 334.66
  Q 549.45 326.91 550.38 317.72
  L 552.04 294.29
  C 552.23 311.08 551.51 328.92 555.44 345.36
  Q 558.87 359.71 565.23 373.21
  Z"
/>
<path fill="#143f4e" fill-opacity="0.051" d="
  M 324.75 301.95
  Q 320.02 310.43 311.66 313.47
  Q 307.32 315.05 296.15 315.10
  Q 221.23 315.43 146.44 315.58
  C 142.23 313.42 130.97 305.31 142.12 301.91
  Q 147.90 303.31 154.51 302.92
  L 149.78 305.76
  A 1.70 1.69 52.7 0 0 149.43 308.39
  C 153.81 312.96 159.26 313.58 165.38 313.58
  Q 193.70 313.55 219.26 313.59
  Q 248.20 313.64 280.44 313.18
  Q 287.11 313.09 291.53 311.64
  Q 294.81 310.57 301.80 308.82
  Q 305.71 307.84 307.70 306.57
  A 0.85 0.85 0.0 0 0 307.56 305.07
  Q 304.75 303.92 301.75 303.92
  Q 220.46 303.83 203.94 303.65
  Q 201.34 303.62 199.10 303.38
  A 0.04 0.03 13.3 0 1 199.07 303.35
  L 199.07 303.07
  A 0.16 0.15 -2.0 0 1 199.22 302.92
  L 209.50 302.82
  Q 265.38 303.04 321.25 301.92
  Q 322.41 301.90 323.54 301.57
  Q 324.25 301.56 324.75 301.95
  Z"
/>
<path fill="#0a4658" fill-opacity="0.153" d="
  M 209.50 302.82
  L 199.22 302.92
  A 0.16 0.15 -2.0 0 0 199.07 303.07
  L 199.07 303.35
  A 0.04 0.03 13.3 0 0 199.10 303.38
  Q 201.34 303.62 203.94 303.65
  Q 220.46 303.83 301.75 303.92
  Q 304.75 303.92 307.56 305.07
  A 0.85 0.85 0.0 0 1 307.70 306.57
  Q 305.71 307.84 301.80 308.82
  Q 294.81 310.57 291.53 311.64
  Q 287.11 313.09 280.44 313.18
  Q 248.20 313.64 219.26 313.59
  Q 193.70 313.55 165.38 313.58
  C 159.26 313.58 153.81 312.96 149.43 308.39
  A 1.70 1.69 52.7 0 1 149.78 305.76
  L 154.51 302.92
  L 209.50 302.82
  Z"
/>
<path fill="#009ca2" d="
  M 96.29 315.88
  L 94.72 315.90
  L 96.29 315.88
  Z"
/>
<path fill="#009ca2" d="
  M 101.71 315.85
  L 96.48 315.87
  L 101.71 315.85
  Z"
/>
<path fill="#2ad5d8" d="
  M 85.95 316.00
  Q 88.72 316.50 91.53 316.69
  Q 91.93 316.72 93.51 317.55
  Q 93.71 317.66 93.51 317.65
  Q 92.78 317.62 90.47 317.64
  A 2.15 2.08 30.0 0 0 89.55 317.87
  Q 82.93 321.31 75.13 321.81
  Q 71.89 322.02 46.69 323.61
  Q 40.63 323.99 34.40 326.71
  A 0.58 0.38 -28.5 0 0 34.03 327.39
  Q 34.34 327.76 35.55 327.69
  Q 29.32 329.82 25.45 334.09
  Q 21.69 339.35 21.48 345.20
  L 13.30 340.73
  C 16.59 327.44 26.39 320.18 39.01 317.29
  Q 43.57 316.24 52.58 316.15
  Q 69.27 315.98 85.95 316.00
  Z"
/>
<path fill="#009ca2" d="
  M 545.17 325.70
  Q 543.32 330.59 540.46 334.96
  Q 532.63 346.96 522.44 356.93
  Q 514.79 364.41 513.87 365.36
  C 504.88 374.57 500.12 379.84 491.90 388.08
  Q 480.03 399.98 470.76 409.76
  C 466.42 414.33 460.96 418.92 456.04 424.37
  C 438.49 443.78 414.80 466.43 402.27 479.35
  Q 397.19 484.59 390.79 490.71
  C 383.74 497.47 378.77 503.38 372.00 509.70
  Q 370.06 511.51 364.61 517.24
  C 361.88 520.10 358.10 523.03 354.95 526.02
  C 345.49 532.58 336.52 536.50 324.56 535.08
  Q 314.63 533.90 305.08 529.42
  Q 303.26 527.70 301.40 526.09
  Q 299.10 524.11 297.78 522.83
  Q 280.72 506.20 264.81 489.94
  A 0.09 0.03 16.8 0 0 264.78 489.92
  L 254.27 484.58
  A 1.29 0.99 74.3 0 1 253.99 484.37
  C 245.03 475.15 237.71 468.57 224.79 467.23
  Q 219.32 466.66 204.89 466.41
  Q 200.47 466.33 196.72 465.28
  Q 190.14 463.44 188.87 462.64
  Q 185.26 460.33 181.97 458.73
  A 3.88 3.81 82.1 0 1 180.71 457.76
  Q 179.05 455.85 177.05 454.90
  L 174.40 447.29
  L 182.86 445.45
  A 0.55 0.54 78.5 0 1 183.52 445.89
  C 185.03 454.49 190.36 457.81 197.77 460.95
  A 2.30 2.28 56.0 0 0 198.73 461.14
  L 218.50 461.06
  Q 226.41 461.38 229.31 461.91
  Q 232.37 462.47 238.48 464.78
  L 248.44 469.04
  Q 257.01 474.86 259.32 476.94
  Q 270.10 486.65 280.77 496.49
  Q 289.87 504.75 298.80 513.20
  Q 307.83 521.74 312.97 525.04
  C 320.27 529.72 331.08 529.73 338.71 526.42
  Q 345.88 523.31 348.34 521.24
  Q 359.79 511.64 371.08 499.90
  C 377.86 492.84 383.41 487.34 389.59 481.04
  L 396.47 474.30
  Q 407.06 465.24 413.11 458.85
  Q 422.36 449.09 427.31 445.06
  C 431.99 441.25 439.55 432.26 447.05 425.29
  C 454.03 418.79 460.87 411.00 466.20 405.77
  Q 474.52 397.59 479.85 391.76
  C 490.18 380.45 500.55 370.04 509.96 359.77
  Q 519.76 349.08 523.48 345.37
  C 527.06 341.80 530.16 337.54 532.79 334.16
  A 9.64 9.60 6.2 0 1 536.28 331.37
  C 539.68 329.76 542.28 329.41 545.17 325.70
  Z"
/>
<path fill="#126977" d="
  M 544.61 334.66
  C 537.66 348.03 525.75 358.40 515.92 369.43
  Q 509.13 377.05 500.78 385.03
  C 486.14 399.03 466.05 421.52 455.21 432.46
  Q 425.72 462.18 382.05 507.05
  Q 370.93 518.47 362.94 525.42
  C 356.08 531.37 347.86 535.81 338.79 537.70
  Q 319.75 541.68 305.08 529.42
  Q 314.63 533.90 324.56 535.08
  C 336.52 536.50 345.49 532.58 354.95 526.02
  C 363.86 520.07 372.00 511.75 380.05 504.04
  C 384.64 499.65 388.42 494.62 392.93 490.26
  Q 403.72 479.79 418.60 464.42
  C 433.29 449.25 442.52 440.32 459.57 423.39
  Q 462.43 420.55 464.28 418.45
  C 468.71 413.42 473.12 409.44 477.79 404.28
  C 488.39 392.56 499.70 382.58 509.60 371.40
  Q 513.55 366.93 519.09 361.41
  C 527.82 352.71 536.07 343.57 544.61 334.66
  Z"
/>
<path fill="#01b5c2" d="
  M 13.30 340.73
  L 21.48 345.20
  Q 21.47 349.47 23.08 353.21
  C 19.16 352.18 16.39 353.06 13.01 349.40
  L 13.30 340.73
  Z"
/>
<path fill="#2ad5d8" d="
  M 526.43 340.67
  C 509.57 359.17 489.66 378.34 475.27 393.77
  Q 466.16 403.54 461.12 408.62
  Q 428.67 441.32 396.47 474.30
  L 389.59 481.04
  Q 376.98 483.10 372.31 483.31
  Q 349.10 484.36 325.74 487.38
  C 317.42 488.46 304.22 489.78 294.44 492.13
  Q 289.05 493.42 280.77 496.49
  Q 270.10 486.65 259.32 476.94
  Q 257.01 474.86 248.44 469.04
  Q 243.85 465.87 238.48 464.78
  Q 232.37 462.47 229.31 461.91
  Q 226.41 461.38 218.50 461.06
  C 209.72 461.00 195.87 461.19 191.71 453.78
  L 195.70 456.75
  A 0.24 0.24 0.0 0 0 196.02 456.40
  L 193.46 453.46
  L 192.58 451.77
  Q 190.85 447.50 191.03 442.81
  C 191.33 435.02 196.81 432.07 203.76 431.05
  Q 208.69 430.33 215.91 430.23
  Q 223.71 430.13 228.00 429.09
  Q 244.26 425.17 251.42 410.66
  Q 256.11 401.16 254.55 388.95
  Q 256.90 393.99 256.18 400.66
  A 0.36 0.36 0.0 0 0 256.61 401.05
  C 271.52 397.97 284.05 395.14 299.19 392.72
  Q 335.18 386.97 352.20 383.94
  C 369.97 380.78 388.28 374.90 405.48 370.89
  C 418.11 367.94 429.12 363.66 439.69 360.77
  Q 464.39 354.01 500.87 349.76
  Q 512.99 348.35 526.43 340.67
  Z"
/>
<path fill="#009ca2" d="
  M 23.08 353.21
  C 25.52 359.96 31.39 362.70 38.20 362.69
  Q 39.61 362.69 42.74 363.07
  C 49.62 363.92 57.21 362.87 64.57 363.25
  Q 70.08 363.53 83.38 363.38
  C 100.13 363.19 109.50 363.23 132.77 363.06
  Q 202.73 362.54 218.62 362.61
  C 229.54 362.65 238.71 365.25 245.37 374.22
  A 3.75 3.71 16.1 0 1 245.84 375.06
  Q 250.39 386.29 248.51 398.49
  Q 247.56 398.78 246.99 397.99
  A 1.02 0.98 27.3 0 1 246.80 397.44
  Q 246.55 392.63 246.45 387.81
  Q 246.39 384.90 244.17 382.56
  C 241.01 373.70 234.35 368.38 224.77 368.30
  Q 213.12 368.22 201.45 368.10
  L 204.29 367.53
  A 0.20 0.20 0.0 0 0 204.27 367.14
  Q 200.03 366.66 197.71 366.66
  Q 121.04 366.52 74.74 366.83
  Q 74.43 366.84 71.78 367.18
  A 0.41 0.41 0.0 0 0 71.65 367.95
  Q 72.39 368.32 79.25 368.22
  Q 86.23 368.12 93.22 368.29
  Q 71.11 368.88 49.00 368.81
  Q 46.53 368.80 39.19 368.34
  Q 32.29 367.91 29.54 366.95
  Q 23.56 364.88 18.48 360.95
  A 2.83 2.82 4.0 0 1 17.79 360.16
  L 13.85 353.59
  Q 13.04 351.84 13.01 349.40
  C 16.39 353.06 19.16 352.18 23.08 353.21
  Z"
/>
<path fill="#005972" d="
  M 93.22 368.29
  L 201.45 368.10
  Q 213.12 368.22 224.77 368.30
  C 234.35 368.38 241.01 373.70 244.17 382.56
  Q 246.25 389.00 244.36 395.45
  Q 243.62 395.37 242.74 396.90
  A 0.81 0.81 0.0 0 1 242.02 397.31
  Q 207.25 397.00 172.50 397.27
  Q 166.00 397.32 133.50 397.06
  Q 96.81 396.77 59.84 397.51
  Q 55.35 397.08 50.49 395.01
  Q 42.21 391.25 37.28 385.73
  Q 25.14 372.13 18.34 363.66
  Q 15.03 359.54 13.85 353.59
  L 17.79 360.16
  A 2.83 2.82 4.0 0 0 18.48 360.95
  Q 23.56 364.88 29.54 366.95
  Q 32.29 367.91 39.19 368.34
  Q 46.53 368.80 49.00 368.81
  Q 71.11 368.88 93.22 368.29
  Z"
/>
<path fill="#01b5c2" d="
  M 201.45 368.10
  L 93.22 368.29
  Q 86.23 368.12 79.25 368.22
  Q 72.39 368.32 71.65 367.95
  A 0.41 0.41 0.0 0 1 71.78 367.18
  Q 74.43 366.84 74.74 366.83
  Q 121.04 366.52 197.71 366.66
  Q 200.03 366.66 204.27 367.14
  A 0.20 0.20 0.0 0 1 204.29 367.53
  L 201.45 368.10
  Z"
/>
<path fill="#a4f8f4" d="
  M 254.55 388.95
  Q 256.11 401.16 251.42 410.66
  Q 244.26 425.17 228.00 429.09
  Q 223.71 430.13 215.91 430.23
  Q 208.69 430.33 203.76 431.05
  C 196.81 432.07 191.33 435.02 191.03 442.81
  Q 190.85 447.50 192.58 451.77
  Q 192.94 452.59 192.85 453.09
  A 0.49 0.49 0.0 0 1 192.11 453.41
  Q 191.34 452.93 190.73 451.86
  C 186.85 440.46 187.47 428.83 202.24 427.75
  C 208.98 427.26 216.61 427.89 222.91 426.01
  Q 226.62 424.89 234.90 421.11
  L 240.93 417.51
  Q 252.26 406.07 251.97 389.95
  C 251.92 387.16 251.13 384.21 251.19 381.29
  A 0.46 0.46 0.0 0 1 252.09 381.16
  L 254.55 388.95
  Z"
/>
<path fill="#01b5c2" d="
  M 248.51 398.49
  C 246.11 407.75 241.03 415.98 232.82 420.69
  A 0.15 0.14 -28.5 0 0 232.76 420.88
  A 0.15 0.15 0.0 0 0 232.95 420.96
  L 240.93 417.51
  L 234.90 421.11
  Q 222.74 424.02 217.50 424.06
  C 204.42 424.17 192.62 422.46 185.19 435.04
  A 2.49 2.48 -52.6 0 0 185.59 438.08
  C 186.71 439.19 187.28 440.75 187.56 442.44
  Q 188.39 447.47 190.73 451.86
  Q 191.34 452.93 192.11 453.41
  A 0.49 0.49 0.0 0 0 192.85 453.09
  Q 192.94 452.59 192.58 451.77
  L 193.46 453.46
  Q 192.70 454.01 191.71 453.78
  C 195.87 461.19 209.72 461.00 218.50 461.06
  L 198.73 461.14
  A 2.30 2.28 56.0 0 1 197.77 460.95
  C 190.36 457.81 185.03 454.49 183.52 445.89
  A 0.55 0.54 78.5 0 0 182.86 445.45
  L 174.40 447.29
  Q 171.15 428.57 186.54 419.28
  C 191.34 416.38 197.29 414.93 203.76 414.85
  Q 215.67 414.70 219.50 414.75
  Q 222.80 414.79 226.19 414.00
  Q 238.50 411.47 243.33 398.57
  L 244.36 395.45
  Q 246.25 389.00 244.17 382.56
  Q 246.39 384.90 246.45 387.81
  Q 246.55 392.63 246.80 397.44
  A 1.02 0.98 27.3 0 0 246.99 397.99
  Q 247.56 398.78 248.51 398.49
  Z"
/>
<path fill="#143f4e" fill-opacity="0.051" d="
  M 59.84 397.51
  Q 64.87 398.70 67.50 398.71
  Q 119.27 398.95 235.90 398.58
  C 237.78 398.58 240.69 398.92 243.33 398.57
  Q 238.50 411.47 226.19 414.00
  Q 187.99 411.95 150.04 411.91
  Q 117.23 411.87 114.54 411.84
  Q 92.82 411.59 80.03 410.14
  C 75.18 409.59 60.65 408.06 62.19 400.15
  A 0.58 0.58 0.0 0 1 62.76 399.68
  L 81.72 399.82
  L 73.38 400.10
  A 0.24 0.24 0.0 0 0 73.22 400.50
  C 76.53 403.96 80.89 404.68 85.71 405.00
  Q 98.95 405.88 125.68 406.01
  Q 146.70 406.12 208.29 406.11
  Q 223.72 406.11 237.27 400.16
  A 0.06 0.06 0.0 0 0 237.24 400.04
  L 180.96 399.88
  Q 176.61 399.38 172.23 399.39
  Q 97.98 399.46 66.83 399.30
  Q 58.21 399.26 50.49 395.01
  Q 55.35 397.08 59.84 397.51
  Z"
/>
<path fill="#051d27" fill-opacity="0.969" d="
  M 244.36 395.45
  L 243.33 398.57
  C 240.69 398.92 237.78 398.58 235.90 398.58
  Q 119.27 398.95 67.50 398.71
  Q 64.87 398.70 59.84 397.51
  Q 96.81 396.77 133.50 397.06
  Q 166.00 397.32 172.50 397.27
  Q 207.25 397.00 242.02 397.31
  A 0.81 0.81 0.0 0 0 242.74 396.90
  Q 243.62 395.37 244.36 395.45
  Z"
/>
<path fill="#0a4658" fill-opacity="0.153" d="
  M 180.96 399.88
  L 237.24 400.04
  A 0.06 0.06 0.0 0 1 237.27 400.16
  Q 223.72 406.11 208.29 406.11
  Q 146.70 406.12 125.68 406.01
  Q 98.95 405.88 85.71 405.00
  C 80.89 404.68 76.53 403.96 73.22 400.50
  A 0.24 0.24 0.0 0 1 73.38 400.10
  L 81.72 399.82
  L 180.96 399.88
  Z"
/>
<path fill="#01b5c2" d="
  M 139.64 421.85
  L 143.77 429.95
  C 141.70 434.38 139.80 439.23 140.26 443.93
  C 144.07 438.16 146.19 434.99 143.63 428.33
  A 0.09 0.01 -49.3 0 1 143.68 428.25
  Q 143.70 428.22 143.70 428.14
  A 0.14 0.04 54.6 0 1 143.85 428.26
  Q 148.68 437.60 141.23 444.20
  L 140.17 447.05
  Q 138.18 455.26 129.45 459.16
  C 133.67 456.85 137.47 453.77 138.62 448.89
  Q 140.22 442.09 139.11 435.92
  Q 138.64 434.46 138.08 434.06
  A 0.54 0.53 -72.1 0 0 137.23 434.50
  L 137.23 436.53
  A 0.59 0.58 83.1 0 1 136.79 437.10
  L 132.03 438.28
  A 0.46 0.45 75.8 0 1 131.47 437.94
  L 131.37 437.56
  A 0.08 0.08 0.0 0 1 131.43 437.46
  L 136.29 436.25
  A 0.70 0.69 -7.2 0 0 136.83 435.56
  Q 136.81 433.62 135.24 431.67
  C 126.55 424.97 115.26 423.95 104.99 427.52
  Q 92.90 431.95 92.70 445.39
  Q 88.73 443.67 84.03 444.88
  Q 83.95 441.17 84.19 439.97
  C 86.94 426.35 98.68 417.65 112.01 416.02
  Q 122.26 414.78 131.72 418.05
  Q 135.40 419.32 139.64 421.85
  Z"
/>
<path fill="#67ecea" d="
  M 234.90 421.11
  Q 226.62 424.89 222.91 426.01
  C 216.61 427.89 208.98 427.26 202.24 427.75
  C 187.47 428.83 186.85 440.46 190.73 451.86
  Q 188.39 447.47 187.56 442.44
  C 187.28 440.75 186.71 439.19 185.59 438.08
  A 2.49 2.48 -52.6 0 1 185.19 435.04
  C 192.62 422.46 204.42 424.17 217.50 424.06
  Q 222.74 424.02 234.90 421.11
  Z"
/>
<path fill="#006e8a" d="
  M 156.46 438.23
  Q 158.13 441.35 160.02 444.36
  C 162.80 448.78 163.65 451.54 163.66 456.17
  A 0.63 0.63 0.0 0 1 163.15 456.80
  Q 153.17 458.72 144.40 453.49
  L 147.27 446.66
  A 0.15 0.15 0.0 0 0 147.20 446.47
  L 147.19 446.47
  A 0.14 0.14 0.0 0 0 147.01 446.55
  Q 145.14 450.99 143.12 452.62
  Q 140.26 454.93 130.09 461.16
  Q 127.54 461.77 125.71 460.87
  L 129.45 459.16
  Q 138.18 455.26 140.17 447.05
  Q 143.95 446.57 145.58 443.74
  A 0.38 0.38 0.0 0 0 145.16 443.19
  L 141.23 444.20
  Q 148.68 437.60 143.85 428.26
  A 0.14 0.04 54.6 0 0 143.70 428.14
  Q 143.70 428.22 143.68 428.25
  A 0.09 0.01 -49.3 0 0 143.63 428.33
  C 146.19 434.99 144.07 438.16 140.26 443.93
  C 141.65 439.20 144.06 435.15 143.77 429.95
  L 139.64 421.85
  Q 148.50 429.50 156.46 438.23
  Z"
/>
<path fill="#143f4e" fill-opacity="0.051" d="
  M 408.65 534.04
  L 465.21 477.80
  Q 467.13 476.17 468.92 474.43
  Q 476.15 467.42 483.50 460.49
  Q 497.01 447.74 506.08 437.83
  C 509.49 434.10 512.67 431.04 517.56 428.54
  Q 526.03 424.21 528.34 423.19
  A 0.41 0.41 0.0 0 1 528.90 423.70
  C 527.06 429.32 524.07 432.75 519.70 438.57
  Q 518.22 440.53 512.97 445.62
  Q 506.47 451.92 490.48 468.16
  C 486.28 472.42 483.28 476.93 478.96 480.94
  Q 461.11 497.47 459.12 499.51
  C 455.58 503.11 451.94 505.63 448.51 509.37
  Q 438.74 520.00 428.49 532.04
  C 423.90 537.43 419.74 539.78 413.65 543.34
  Q 410.15 545.39 406.35 545.80
  A 0.34 0.34 0.0 0 1 406.00 545.32
  Q 408.52 539.85 408.65 534.04
  Z
  M 416.10 537.55
  Q 416.83 537.59 418.17 536.67
  Q 424.86 532.02 432.15 524.39
  C 439.93 516.24 447.46 507.42 455.69 499.26
  C 467.05 487.98 482.57 473.99 495.81 460.66
  Q 510.33 446.05 512.60 443.68
  Q 517.42 438.64 519.88 434.48
  Q 520.44 433.53 520.40 433.05
  A 0.96 0.95 73.3 0 0 518.98 432.28
  Q 512.65 435.88 506.54 442.06
  Q 479.57 469.41 459.14 490.84
  C 446.89 503.69 434.63 514.95 423.07 526.99
  Q 418.42 531.83 415.49 536.34
  A 0.78 0.78 0.0 0 0 416.10 537.55
  Z"
/>
<path fill="#42dfdf" d="
  M 135.24 431.67
  Q 133.64 434.14 130.95 435.21
  A 0.91 0.91 0.0 0 1 129.96 435.01
  Q 128.19 433.21 126.49 432.33
  C 124.21 431.15 122.05 428.52 119.34 427.96
  Q 114.86 427.03 110.22 427.10
  A 3.69 3.55 -56.8 0 0 108.74 427.44
  Q 105.97 428.71 104.99 427.52
  C 115.26 423.95 126.55 424.97 135.24 431.67
  Z"
/>
<path fill="#2ad5d8" d="
  M 135.24 431.67
  Q 136.81 433.62 136.83 435.56
  A 0.70 0.69 -7.2 0 1 136.29 436.25
  L 131.43 437.46
  A 0.08 0.08 0.0 0 0 131.37 437.56
  L 131.47 437.94
  A 0.46 0.45 75.8 0 0 132.03 438.28
  L 136.79 437.10
  A 0.59 0.58 83.1 0 0 137.23 436.53
  L 137.23 434.50
  A 0.54 0.53 -72.1 0 1 138.08 434.06
  Q 138.64 434.46 139.11 435.92
  Q 136.84 440.74 131.43 441.99
  A 0.14 0.14 0.0 0 0 131.46 442.26
  Q 136.17 442.32 139.15 439.59
  A 0.21 0.21 0.0 0 1 139.50 439.76
  L 139.40 441.11
  Q 137.06 445.64 133.21 444.53
  A 2.61 1.98 -70.0 0 0 130.60 446.22
  Q 130.08 447.54 129.47 447.85
  A 0.08 0.08 0.0 0 1 129.37 447.73
  Q 130.26 446.70 130.25 445.99
  A 0.30 0.29 62.5 0 0 129.72 445.82
  C 123.47 454.41 118.30 460.24 106.83 459.93
  C 99.18 458.13 93.72 453.73 92.70 445.39
  Q 92.90 431.95 104.99 427.52
  Q 105.97 428.71 108.74 427.44
  A 3.69 3.55 -56.8 0 1 110.22 427.10
  Q 114.86 427.03 119.34 427.96
  C 122.05 428.52 124.21 431.15 126.49 432.33
  Q 128.19 433.21 129.96 435.01
  A 0.91 0.91 0.0 0 0 130.95 435.21
  Q 133.64 434.14 135.24 431.67
  Z
  M 125.31 433.76
  C 121.83 428.80 114.50 429.06 108.79 429.63
  Q 101.55 430.34 97.77 436.68
  A 3.17 3.01 -23.5 0 0 97.44 437.46
  Q 95.82 443.53 98.78 449.06
  A 0.61 0.60 -47.9 0 0 99.87 449.00
  C 100.55 447.34 99.50 446.02 99.63 444.27
  Q 100.14 437.08 106.25 434.04
  Q 113.90 430.24 121.69 432.91
  Q 123.41 433.50 124.55 434.46
  A 0.52 0.52 0.0 0 0 125.31 433.76
  Z"
/>
<path fill="#67ecea" d="
  M 125.31 433.76
  A 0.52 0.52 0.0 0 1 124.55 434.46
  Q 123.41 433.50 121.69 432.91
  Q 113.90 430.24 106.25 434.04
  Q 100.14 437.08 99.63 444.27
  C 99.50 446.02 100.55 447.34 99.87 449.00
  A 0.61 0.60 -47.9 0 1 98.78 449.06
  Q 95.82 443.53 97.44 437.46
  A 3.17 3.01 -23.5 0 1 97.77 436.68
  Q 101.55 430.34 108.79 429.63
  C 114.50 429.06 121.83 428.80 125.31 433.76
  Z"
/>
<path fill="#009ca2" d="
  M 140.26 443.93
  C 139.80 439.23 141.70 434.38 143.77 429.95
  C 144.06 435.15 141.65 439.20 140.26 443.93
  Z"
/>
<path fill="#009ca2" d="
  M 129.45 459.16
  L 125.71 460.87
  Q 112.70 467.21 98.96 461.60
  L 86.50 454.21
  Q 84.33 449.69 84.03 444.88
  Q 88.73 443.67 92.70 445.39
  C 93.72 453.73 99.18 458.13 106.83 459.93
  Q 114.17 461.37 119.28 458.36
  Q 120.53 457.63 125.91 453.03
  C 128.83 450.54 130.30 447.37 134.41 447.10
  C 137.58 446.89 138.93 443.93 139.40 441.11
  L 139.50 439.76
  A 0.21 0.21 0.0 0 0 139.15 439.59
  Q 136.17 442.32 131.46 442.26
  A 0.14 0.14 0.0 0 1 131.43 441.99
  Q 136.84 440.74 139.11 435.92
  Q 140.22 442.09 138.62 448.89
  C 137.47 453.77 133.67 456.85 129.45 459.16
  Z"
/>
<path fill="#005972" d="
  M 164.25 449.13
  L 165.90 455.94
  L 165.90 458.71
  L 165.91 461.54
  L 165.88 462.48
  Q 164.59 471.47 158.22 477.48
  Q 149.05 486.14 136.00 486.89
  Q 126.95 487.42 118.92 483.73
  Q 112.82 480.74 107.84 476.16
  Q 101.13 469.98 94.44 463.81
  Q 88.77 458.57 86.50 454.21
  L 98.96 461.60
  L 91.61 458.60
  A 0.25 0.24 76.7 0 0 91.36 459.01
  Q 93.76 461.17 95.98 462.78
  C 101.59 466.84 108.57 467.71 116.37 467.56
  C 128.28 467.33 137.16 462.42 144.40 453.49
  Q 153.17 458.72 163.15 456.80
  A 0.63 0.63 0.0 0 0 163.66 456.17
  C 163.65 451.54 162.80 448.78 160.02 444.36
  Q 158.13 441.35 156.46 438.23
  Q 161.24 442.84 164.25 449.13
  Z"
/>
<path fill="#009ca2" d="
  M 140.17 447.05
  L 141.23 444.20
  L 145.16 443.19
  A 0.38 0.38 0.0 0 1 145.58 443.74
  Q 143.95 446.57 140.17 447.05
  Z"
/>
<path fill="#01b5c2" d="
  M 139.40 441.11
  C 138.93 443.93 137.58 446.89 134.41 447.10
  C 130.30 447.37 128.83 450.54 125.91 453.03
  Q 120.53 457.63 119.28 458.36
  Q 114.17 461.37 106.83 459.93
  C 118.30 460.24 123.47 454.41 129.72 445.82
  A 0.30 0.29 62.5 0 1 130.25 445.99
  Q 130.26 446.70 129.37 447.73
  A 0.08 0.08 0.0 0 0 129.47 447.85
  Q 130.08 447.54 130.60 446.22
  A 2.61 1.98 -70.0 0 1 133.21 444.53
  Q 137.06 445.64 139.40 441.11
  Z"
/>
<path fill="#126977" d="
  M 144.40 453.49
  C 137.16 462.42 128.28 467.33 116.37 467.56
  C 108.57 467.71 101.59 466.84 95.98 462.78
  Q 93.76 461.17 91.36 459.01
  A 0.25 0.24 76.7 0 1 91.61 458.60
  L 98.96 461.60
  Q 112.70 467.21 125.71 460.87
  Q 127.54 461.77 130.09 461.16
  L 127.50 462.22
  Q 127.37 462.29 127.25 462.37
  Q 127.24 462.38 127.25 462.37
  Q 127.37 462.29 127.50 462.22
  L 130.09 461.16
  Q 140.26 454.93 143.12 452.62
  Q 145.14 450.99 147.01 446.55
  A 0.14 0.14 0.0 0 1 147.19 446.47
  L 147.20 446.47
  A 0.15 0.15 0.0 0 1 147.27 446.66
  L 144.40 453.49
  Z"
/>
<path fill="#143f4e" fill-opacity="0.051" d="
  M 118.92 483.73
  Q 126.95 487.42 136.00 486.89
  Q 149.05 486.14 158.22 477.48
  Q 164.59 471.47 165.88 462.48
  L 165.91 461.54
  L 165.90 458.71
  L 165.90 455.94
  L 164.25 449.13
  Q 167.37 457.69 170.29 466.37
  C 172.12 471.81 174.01 480.43 171.53 485.87
  C 170.21 488.78 165.83 490.76 164.44 493.48
  Q 163.03 496.25 162.13 498.43
  C 159.83 504.01 155.66 506.99 149.37 506.84
  C 135.56 506.49 122.55 497.48 118.92 483.73
  Z"
/>
<path fill="#42dfdf" d="
  M 191.71 453.78
  Q 192.70 454.01 193.46 453.46
  L 196.02 456.40
  A 0.24 0.24 0.0 0 1 195.70 456.75
  L 191.71 453.78
  Z"
/>
<path fill="#051d27" fill-opacity="0.969" d="
  M 165.90 458.71
  L 165.90 455.94
  L 165.90 458.71
  Z"
/>
<path fill="#006e8a" d="
  M 130.09 461.16
  L 127.50 462.22
  L 130.09 461.16
  Z"
/>
<path fill="#051d27" fill-opacity="0.969" d="
  M 165.91 461.54
  L 165.88 462.48
  L 165.91 461.54
  Z"
/>
<path fill="#006e8a" d="
  M 127.50 462.22
  Q 127.37 462.29 127.25 462.37
  Q 127.24 462.38 127.25 462.37
  Q 127.37 462.29 127.50 462.22
  Z"
/>
<path fill="#01b5c2" d="
  M 248.44 469.04
  L 238.48 464.78
  Q 243.85 465.87 248.44 469.04
  Z"
/>
<path fill="#01b5c2" d="
  M 389.59 481.04
  C 383.41 487.34 377.86 492.84 371.08 499.90
  Q 359.79 511.64 348.34 521.24
  Q 345.88 523.31 338.71 526.42
  C 331.08 529.73 320.27 529.72 312.97 525.04
  Q 307.83 521.74 298.80 513.20
  Q 289.87 504.75 280.77 496.49
  Q 289.05 493.42 294.44 492.13
  C 304.22 489.78 317.42 488.46 325.74 487.38
  Q 349.10 484.36 372.31 483.31
  Q 376.98 483.10 389.59 481.04
  Z"
/>
<circle fill="#143f4e" fill-opacity="0.051" cx="201.82" cy="484.44" r="0.28"/>
<path fill="#143f4e" fill-opacity="0.051" d="
  M 218.33 487.84
  C 221.35 488.33 224.33 488.93 227.40 488.93
  Q 245.38 488.89 253.30 488.93
  C 254.99 488.94 255.73 490.32 256.71 491.37
  Q 269.73 505.28 282.78 519.11
  C 284.76 526.33 282.00 527.16 275.82 524.34
  Q 259.57 516.92 242.97 511.77
  C 236.37 509.72 207.63 498.46 218.33 487.84
  Z"
/>
<path fill="#143f4e" fill-opacity="0.051" d="
  M 483.07 489.97
  Q 466.90 509.27 450.89 528.74
  C 441.68 539.92 435.33 550.28 427.19 562.86
  C 420.27 573.54 410.57 581.39 399.12 588.21
  C 391.44 592.79 384.37 595.64 375.21 595.61
  Q 365.30 595.58 359.31 593.83
  Q 339.33 587.98 328.41 570.90
  Q 325.37 566.14 326.31 560.16
  Q 332.37 563.36 339.48 564.89
  C 335.43 569.30 339.53 573.04 343.33 575.38
  C 362.62 587.22 385.88 584.62 403.97 572.00
  Q 417.47 562.57 428.28 549.92
  Q 453.10 520.91 469.84 502.52
  Q 475.41 496.40 483.07 489.97
  Z"
/>
</svg>
